<?xml version="1.0" encoding="utf-8"?>
<!-- Generator: Adobe Illustrator 24.1.1, SVG Export Plug-In . SVG Version: 6.00 Build 0)  -->
<svg version="1.1"
	 id="svg2" inkscape:export-filename="/home/byron/art/cards/final/PNGs/queen_of_clubs2.png" inkscape:export-xdpi="215.44792" inkscape:export-ydpi="215.44792" inkscape:version="0.48.0 r9654" sodipodi:docname="queen_of_clubs2.svg" xmlns:cc="http://creativecommons.org/ns#" xmlns:dc="http://purl.org/dc/elements/1.1/" xmlns:inkscape="http://www.inkscape.org/namespaces/inkscape" xmlns:rdf="http://www.w3.org/1999/02/22-rdf-syntax-ns#" xmlns:sodipodi="http://sodipodi.sourceforge.net/DTD/sodipodi-0.dtd" xmlns:svg="http://www.w3.org/2000/svg"
	 xmlns="http://www.w3.org/2000/svg" xmlns:xlink="http://www.w3.org/1999/xlink" x="0px" y="0px" viewBox="0 0 167.1 242.7"
	 style="enable-background:new 0 0 167.1 242.7;" xml:space="preserve">
<style type="text/css">
	.st0{fill:#FFFFFF;stroke:#000000;stroke-width:0.5;}
	.st1{fill:#ED3438;}
</style>
<sodipodi:namedview  bordercolor="#666666" borderopacity="1" gridtolerance="10" guidetolerance="10" id="namedview39" inkscape:current-layer="svg2" inkscape:cx="24.422344" inkscape:cy="145.30985" inkscape:pageopacity="0" inkscape:pageshadow="2" inkscape:window-height="977" inkscape:window-maximized="1" inkscape:window-width="1680" inkscape:window-x="0" inkscape:window-y="25" inkscape:zoom="2.4336873" objecttolerance="10" pagecolor="#ffffff" showgrid="false">
	</sodipodi:namedview>
<g id="Layer_x0020_1">
	<path id="path5" class="st0" d="M166.8,235.5c0,3.8-3.1,6.9-6.9,6.9H7.1c-3.8,0-6.9-3.1-6.9-6.9V7.1c0-3.8,3.1-6.9,6.9-6.9H160
		c3.8,0,6.9,3.1,6.9,6.9V235.5z"/>
	<g id="g7">
		<g id="g9">
		</g>
	</g>
	<g id="g15">
	</g>
	<g id="g19">
	</g>
	<g id="g23">
		<g id="g25">
		</g>
	</g>
	<g id="g31">
		<g id="g33">
		</g>
	</g>
</g>
<path class="st1" d="M5.1,7v2.1C6,8.4,6.7,7.1,5.1,7 M18,18.4c1.6-1.2,2.9-2.9,4.3-4.4l4.3-4.6C26.9,9,28,8.2,27.8,7.5
	C27.5,6.6,25.2,7,24.5,7H14.4c-1.5,0-3.1,0-4.6,0c-0.4,0-1.3,0-1.4,0.6c-0.1,0.4,0.2,0.8,0.4,1c0.6,0.7,1.2,1.3,1.8,1.9L18,18.4
	 M39.6,18.4c1.6-1.2,2.9-2.9,4.3-4.4l4.3-4.6c0.4-0.4,1.4-1.2,1.3-1.9C49.1,6.6,46.8,7,46.1,7H36c-1.5,0-3.1,0-4.6,0
	c-0.4,0-1.3,0-1.4,0.6c-0.1,0.4,0.2,0.8,0.4,1c0.6,0.7,1.2,1.3,1.8,1.9L39.6,18.4 M61.2,18.4c1.6-1.2,2.9-2.9,4.3-4.4l4.3-4.6
	C70.1,9,71.2,8.2,71,7.5C70.7,6.6,68.4,7,67.7,7H57.6c-1.5,0-3.1,0-4.6,0c-0.4,0-1.3,0-1.4,0.6c-0.1,0.4,0.2,0.8,0.4,1
	c0.6,0.7,1.2,1.3,1.8,1.9L61.2,18.4 M82.8,18.4c1.6-1.2,2.9-2.9,4.3-4.4l4.3-4.6c0.4-0.4,1.4-1.2,1.3-1.9C92.3,6.6,90,7,89.4,7H79.2
	c-1.5,0-3.1,0-4.6,0c-0.4,0-1.3,0-1.4,0.6c-0.1,0.4,0.2,0.8,0.4,1c0.6,0.7,1.2,1.3,1.8,1.9L82.8,18.4 M104.4,18.4
	c1.6-1.2,2.9-2.9,4.3-4.4l4.3-4.6c0.4-0.4,1.4-1.2,1.3-1.9C113.9,6.6,111.6,7,111,7h-10.1c-1.5,0-3.1,0-4.6,0c-0.4,0-1.3,0-1.4,0.6
	c-0.1,0.4,0.2,0.8,0.4,1c0.6,0.7,1.2,1.3,1.8,1.9L104.4,18.4 M126,18.4c1.6-1.2,2.9-2.9,4.3-4.4l4.3-4.6c0.4-0.4,1.4-1.2,1.3-1.9
	c-0.3-0.9-2.5-0.6-3.2-0.6h-10.1c-1.5,0-3.1,0-4.6,0c-0.4,0-1.3,0-1.4,0.6c-0.1,0.4,0.2,0.8,0.4,1c0.6,0.7,1.2,1.3,1.8,1.9L126,18.4
	 M157.8,7.5c-1.4-0.9-3.3-0.5-4.9-0.5h-10.3c-1.2,0-2.4-0.1-3.6,0c-0.4,0-0.9,0.2-0.9,0.7c0,0.6,0.8,1.2,1.1,1.6l3.3,3.5l3.8,4.1
	c0.4,0.4,1,1.4,1.6,1.4c0.9,0,2-1.8,2.6-2.4l4.9-5.3C156.2,9.6,157.2,8.7,157.8,7.5 M159.4,7.9c0.6,0.9,1.4,1.8,2.3,2.5V7
	C160.7,7,160.1,7.1,159.4,7.9 M7.2,8.6c-0.7,0.7-1.7,1.5-2,2.5c-0.4,1.1-0.1,2.9-0.1,4.1v9.2c0,1.8-0.3,3.2,1,4.6
	c0.3,0.3,0.7,0.8,1.1,0.9C8,29.8,8.8,28.5,9.3,28l5.7-6.2c0.5-0.5,2.1-1.8,1.9-2.6c-0.2-1.1-1.9-2.2-2.6-3L10,11.4
	C9.1,10.4,8.2,9.3,7.2,8.6 M28.8,8.6l-7,7.6c-0.7,0.8-2.3,1.9-2.6,3c-0.2,0.9,1.4,2.1,1.9,2.6l5.4,5.8c0.6,0.6,1.5,2,2.3,2.1
	c0.8,0.1,1.6-1.3,2.1-1.8l5.7-6.2c0.5-0.5,2.1-1.8,1.9-2.6c-0.2-1.1-1.9-2.2-2.6-3l-4.4-4.8C30.7,10.4,29.8,9.3,28.8,8.6 M50.2,8.6
	c-1.8,2.8-4.6,5.2-6.9,7.6c-0.7,0.8-2.3,1.9-2.6,3c-0.2,0.9,1.4,2.1,1.9,2.6l5.6,6c0.5,0.5,1.4,1.9,2.1,1.9c0.6,0,1.1-0.8,1.5-1.2
	l3.1-3.4l3.8-4.1c0.4-0.5,1.2-1.1,1.3-1.8c0.1-1-1.6-2.2-2.1-2.8L53,11.2C52.2,10.3,51.3,9.1,50.2,8.6 M72,8.6l-7,7.6
	c-0.7,0.8-2.3,1.9-2.6,3c-0.2,0.9,1.4,2.1,1.9,2.6l5.6,6c0.5,0.5,1.4,1.9,2.1,1.9c0.6,0,1.1-0.8,1.5-1.2l3.1-3.4l3.8-4.1
	c0.4-0.5,1.2-1.1,1.3-1.8c0.1-1-1.6-2.2-2.1-2.8l-4.6-4.9C74,10.5,73.1,9.4,72,8.6 M115,8.6c-1.8,2.8-4.6,5.2-6.9,7.6
	c-0.7,0.8-2.3,1.9-2.6,3c-0.2,0.9,1.4,2.1,1.9,2.6l5.6,6c0.5,0.5,1.4,1.9,2.1,1.9c0.6,0,1.1-0.8,1.5-1.2l3.1-3.4l3.8-4.1
	c0.4-0.5,1.2-1.1,1.3-1.8c0.1-1-1.6-2.2-2.1-2.8l-4.9-5.3C117,10.3,116.1,9.1,115,8.6 M136.6,8.6c-1.8,2.8-4.6,5.2-6.9,7.6
	c-0.7,0.8-2.3,1.9-2.6,3c-0.2,0.9,1.4,2.1,1.9,2.6l5.6,6c0.5,0.5,1.4,1.9,2.1,1.9c0.6,0,1.1-0.8,1.5-1.2l3.1-3.4l3.8-4.1
	c0.4-0.5,1.2-1.1,1.3-1.8c0.1-1-1.6-2.2-2.1-2.8l-4.9-5.3C138.6,10.3,137.7,9.1,136.6,8.6 M93.4,9c-0.8,0.2-1.6,1.5-2.1,2.1
	l-5.2,5.6c-0.5,0.6-2.1,1.7-2.1,2.6c0,0.6,0.7,1.2,1.1,1.6l3.3,3.5l3.8,4.1c0.4,0.4,1,1.3,1.6,1.2c0.8-0.2,1.6-1.5,2.1-2.1l5.2-5.6
	c0.5-0.6,2.1-1.7,2.1-2.6c0-0.6-0.7-1.2-1.1-1.6l-3.3-3.5l-3.8-4.1C94.7,9.7,94.1,8.8,93.4,9 M148.6,19.1c1.2,1.8,3,3.4,4.4,4.9
	l3.8,4.1c0.4,0.5,1,1.4,1.6,1.5c0.5,0.1,0.8-0.3,1.1-0.6c0.7-0.7,1.9-1.7,2.1-2.8c0.1-1,0-2,0-3v-5.8c0-1.6,0.3-3.6-0.1-5.1
	c-0.2-1-1.4-1.9-2.1-2.6c-0.3-0.3-0.6-0.7-1-0.7c-0.9-0.1-2.2,1.9-2.8,2.5L148.6,19.1 M18,41.6c1-0.8,1.9-1.9,2.8-2.8l4.4-4.8
	c0.7-0.8,2.3-1.9,2.6-3c0.2-0.9-1.4-2.1-1.9-2.6l-5.7-6.2c-0.5-0.5-1.4-1.9-2.1-1.8c-0.8,0.1-1.7,1.5-2.3,2.1l-5.4,5.8
	c-0.5,0.5-2.1,1.8-1.9,2.6c0.2,1.1,1.9,2.2,2.6,3L18,41.6 M39.4,41.6c1.1-0.6,1.9-1.7,2.8-2.6l4.9-5.3c0.6-0.6,2.3-1.9,2.3-2.8
	c0-0.7-0.9-1.3-1.3-1.8l-3.9-4.2l-2.9-3.2c-0.4-0.4-0.9-1.2-1.5-1.2c-0.8-0.1-1.6,1.3-2.1,1.8l-5.7,6.2c-0.5,0.5-2.1,1.8-1.9,2.6
	c0.2,1.1,1.9,2.2,2.6,3C34.8,36.4,37.6,38.8,39.4,41.6 M61,41.6c1.1-0.6,1.9-1.7,2.8-2.6l4.9-5.3c0.6-0.6,2.3-1.9,2.3-2.8
	c0-0.7-0.9-1.3-1.3-1.8l-3.9-4.2l-2.9-3.2c-0.4-0.4-0.9-1.2-1.5-1.2c-0.8-0.1-1.6,1.3-2.1,1.8l-5.7,6.2c-0.5,0.5-2.1,1.8-1.9,2.6
	c0.2,1.1,1.9,2.2,2.6,3C56.4,36.4,59.2,38.8,61,41.6 M82.6,20.4c-0.9,0.3-1.7,1.6-2.3,2.3l-5.2,5.6c-0.5,0.6-2.1,1.7-2,2.6
	c0.1,0.9,1.4,1.9,2,2.5l5.4,5.8c0.5,0.6,1.6,2.2,2.5,1.9c0.9-0.3,1.7-1.6,2.3-2.3l5.2-5.6c0.5-0.6,2.1-1.7,2-2.6
	c-0.1-0.9-1.4-1.9-2-2.5l-5.4-5.8C84.6,21.8,83.5,20.1,82.6,20.4 M114.4,31c-0.5-1.2-1.6-2.1-2.5-3l-4.9-5.3
	c-0.6-0.6-1.7-2.4-2.6-2.3c-0.6,0.1-1.2,1-1.6,1.4L98.8,26l-2.9,3.2c-0.4,0.4-1.1,1-1.2,1.6c-0.1,0.8,1.2,1.8,1.6,2.3l5.7,6.2
	c0.5,0.6,1.6,2.2,2.5,1.9c1-0.4,2-2,2.8-2.8C109.6,36,111.8,32.9,114.4,31 M125.8,41.6c1.1-0.6,1.9-1.7,2.8-2.6l4.9-5.3
	c0.6-0.6,2.3-1.9,2.3-2.8c0-0.7-0.9-1.3-1.3-1.8l-3.9-4.2l-2.9-3.2c-0.4-0.4-0.9-1.2-1.5-1.2c-0.8-0.1-1.8,1.4-2.3,2l-5.7,6.2
	c-0.5,0.6-2.1,1.7-1.7,2.6c0.4,1.1,1.8,2.2,2.6,3C121.2,36.6,124,38.8,125.8,41.6 M137.8,30.8c0.9,1.4,2.3,2.6,3.4,3.9l6.4,6.9
	c1-0.8,1.9-1.9,2.8-2.8l4.7-5.1c0.6-0.6,2.3-1.9,2.3-2.8c0-0.7-0.9-1.3-1.3-1.8l-3.8-4.1l-3.1-3.4c-0.4-0.4-0.9-1.2-1.5-1.2
	c-0.4,0-0.7,0.4-1,0.7c-0.6,0.6-1.2,1.3-1.8,1.9L137.8,30.8 M161.5,28.7c-0.5,0.6-1.6,1.3-1.7,2.1c-0.2,0.9,1.3,2,1.9,2.5
	C161.7,31.9,162,29.9,161.5,28.7 M5.1,29.4v2.8C6.4,31.2,6.4,30.4,5.1,29.4 M7.2,53c1.3-1,2.4-2.5,3.6-3.7l6.4-6.9
	c-0.8-1.2-1.8-2.2-2.8-3.2l-4.7-5.1c-0.5-0.6-1.8-2.5-2.6-2.2c-0.4,0.1-0.7,0.5-1,0.8c-1.3,1.4-1,3-1,4.8v9c0,1.2-0.3,2.9,0.1,4.1
	C5.5,51.5,6.5,52.3,7.2,53 M28.8,53c1.3-1,2.4-2.5,3.6-3.7l6.4-6.9c-0.7-1.1-1.7-2-2.6-3l-4.7-5.1c-0.6-0.6-1.7-2.4-2.6-2.4
	c-0.6,0-1.2,0.9-1.6,1.4l-3.8,4.1l-3.1,3.4c-0.4,0.4-1.1,1-1.1,1.6c0,0.4,0.4,0.8,0.6,1.1c0.6,0.7,1.2,1.3,1.8,1.9L28.8,53
	 M60.4,42.4c-0.7-1.1-1.7-2-2.6-3l-4.4-4.8c-0.7-0.8-1.8-2.5-2.8-2.8c-0.8-0.2-1.9,1.5-2.5,2.1l-5.7,6.2c-0.5,0.5-1.7,1.5-1.6,2.3
	c0.1,0.9,1.4,1.9,2,2.5l5.4,5.8c0.5,0.5,1.6,2.3,2.5,2.1c1-0.3,2.1-2,2.8-2.8L60.4,42.4 M82,42.4c-0.7-1.1-1.7-2-2.6-3l-4.4-4.8
	c-0.7-0.8-1.8-2.5-2.8-2.8c-0.8-0.2-1.9,1.5-2.5,2.1L64,40.1c-0.5,0.5-1.7,1.5-1.6,2.3c0.1,0.9,1.4,1.9,2,2.5l5.4,5.8
	c0.5,0.5,1.6,2.3,2.5,2.1c1-0.3,2.1-2,2.8-2.8L82,42.4 M83.6,42.3c0.8,1.2,1.8,2.2,2.8,3.2l4.6,4.9c0.6,0.6,1.7,2.4,2.6,2.4
	c0.4,0,0.7-0.4,1-0.7c0.6-0.6,1.2-1.3,1.8-1.9l7.2-7.8c-0.7-1.1-1.7-2-2.6-3l-4.7-5.1c-0.6-0.6-1.7-2.4-2.6-2.4
	c-0.4,0-0.7,0.4-1,0.7c-0.6,0.6-1.2,1.3-1.8,1.9L83.6,42.3 M105.2,42.3c0.7,1.1,1.7,2,2.6,3l4.7,5.1c0.6,0.6,1.7,2.4,2.6,2.4
	c0.4,0,0.7-0.4,1-0.7c0.6-0.6,1.2-1.3,1.8-1.9l7.2-7.8c-0.7-1.1-1.7-2-2.6-3l-4.7-5.1c-0.6-0.6-1.7-2.4-2.6-2.4
	c-0.4,0-0.7,0.4-1,0.7c-0.6,0.6-1.2,1.3-1.8,1.9L105.2,42.3 M126.8,42.3c0.7,1.1,1.7,2,2.6,3l4.7,5.1c0.6,0.6,1.7,2.4,2.6,2.4
	c0.4,0,0.7-0.4,1-0.7c0.6-0.6,1.2-1.3,1.8-1.9l7.2-7.8c-0.8-1.2-1.8-2.2-2.8-3.2l-4.6-4.9c-0.6-0.6-1.7-2.4-2.6-2.4
	c-0.4,0-0.7,0.4-1,0.7c-0.6,0.6-1.2,1.3-1.8,1.9L126.8,42.3 M158.2,31.9c-0.8,0.2-1.6,1.5-2.1,2.1l-5.2,5.6
	c-0.5,0.6-2.1,1.7-2.1,2.6c0,0.6,0.7,1.2,1.1,1.6l3.3,3.5l3.9,4.2c0.4,0.4,1,1.3,1.6,1.2c0.4-0.1,0.7-0.5,1-0.8
	c0.6-0.7,1.6-1.4,1.9-2.3c0.4-1.2,0.1-3.1,0.1-4.4v-6.4c0-1.1,0.1-2.3,0-3.4c-0.2-1.2-1.5-2.2-2.3-3
	C159.1,32.3,158.7,31.8,158.2,31.9 M18,43.1l-7.2,7.8c-0.6,0.6-1.2,1.3-1.8,1.9c-0.2,0.3-0.6,0.6-0.6,1.1c0,0.4,0.4,0.8,0.6,1.1
	c0.6,0.7,1.2,1.3,1.8,1.9l7.2,7.8c1-0.8,1.9-1.9,2.8-2.8l4.7-5.1c0.6-0.6,2.3-1.9,2.3-2.8c0-0.9-1.7-2.2-2.3-2.8L20.8,46
	C19.9,45,19,43.9,18,43.1 M39.6,43.1l-7.2,7.8c-0.6,0.6-1.2,1.3-1.8,1.9c-0.2,0.3-0.6,0.6-0.6,1.1c0,0.4,0.4,0.8,0.6,1.1
	c0.6,0.7,1.2,1.3,1.8,1.9l7.2,7.8c1-0.8,1.9-1.9,2.8-2.8l4.7-5.1c0.6-0.6,2.3-1.9,2.3-2.8c0-0.9-1.7-2.2-2.3-2.8L42.4,46
	C41.5,45,40.6,43.9,39.6,43.1 M61.2,43.1L54,50.9c-0.6,0.6-1.2,1.3-1.8,1.9c-0.2,0.3-0.6,0.6-0.6,1.1c0,0.4,0.4,0.8,0.6,1.1
	c0.6,0.7,1.2,1.3,1.8,1.9l7.2,7.8c1-0.8,1.9-1.9,2.8-2.8l4.7-5.1c0.6-0.6,2.3-1.9,2.3-2.8c0-0.9-1.7-2.2-2.3-2.8L64,46
	C63.1,45,62.2,43.9,61.2,43.1 M82.8,43.1l-7.4,7.9c-0.6,0.6-2.4,2-2.3,3c0.1,0.5,0.5,0.9,0.8,1.2c0.6,0.7,1.3,1.3,2,2
	c1.4,1.3,2.6,2.8,3.9,4.2c0.9,1,2,2,2.8,3.2c1.1-0.6,1.9-1.7,2.8-2.6l4.9-5.3c0.6-0.6,2.3-1.9,2.3-2.8c0-0.9-1.7-2.2-2.3-2.8
	l-4.6-4.9C84.8,45.1,83.9,44,82.8,43.1 M104.4,43.1l-7.2,7.8c-0.6,0.6-1.2,1.3-1.8,1.9c-0.2,0.3-0.6,0.6-0.6,1.1
	c0,0.4,0.4,0.8,0.6,1.1c0.6,0.7,1.2,1.3,1.8,1.9l4.4,4.8c0.9,1,1.9,1.9,2.6,3c1.1-0.6,1.9-1.7,2.8-2.6l4.9-5.3
	c0.6-0.6,2.3-1.9,2.3-2.8c0-0.9-1.7-2.2-2.3-2.8l-4.6-4.9C106.4,45.1,105.5,44,104.4,43.1 M126,43.1l-7.2,7.8
	c-0.6,0.6-1.2,1.3-1.8,1.9c-0.2,0.3-0.6,0.6-0.6,1.1c0,0.4,0.4,0.8,0.6,1.1c0.6,0.7,1.2,1.3,1.8,1.9l4.4,4.8c0.9,1,1.9,1.9,2.6,3
	c1.1-0.6,1.9-1.7,2.8-2.6l4.9-5.3c0.6-0.6,2.3-1.9,2.3-2.8c0-0.9-1.7-2.2-2.3-2.8l-4.6-4.9C128,45.1,127.1,44,126,43.1 M147.6,64.7
	c1-0.8,1.9-1.9,2.8-2.8l4.4-4.8c0.7-0.8,2.3-1.9,2.6-3c0.2-0.9-1.4-2.1-1.9-2.6l-5.7-6.2c-0.5-0.5-1.4-1.9-2.1-1.8
	c-0.8,0.1-1.7,1.5-2.3,2.1l-5.4,5.8c-0.5,0.5-2.1,1.8-1.9,2.6c0.2,1.1,1.9,2.2,2.6,3L147.6,64.7 M161.5,51.8
	c-0.5,0.6-1.6,1.3-1.7,2.1c-0.2,0.9,1.3,2,1.9,2.5C161.7,55,162,53,161.5,51.8 M5.1,52.5v2.8C6.4,54.3,6.4,53.5,5.1,52.5 M7,55
	c-0.3,0.1-0.6,0.4-0.8,0.6c-1.1,1.1-1.1,2-1.1,3.5v12.9c0,1.4,0.2,2.1,1.1,3.2C6.5,75.6,6.9,76,7.4,76c0.8-0.1,1.7-1.5,2.3-2.1
	l5.4-5.8c0.5-0.6,1.9-1.6,1.9-2.5c0-0.7-0.9-1.3-1.3-1.8l-3.6-3.9L8.5,56C8.1,55.6,7.6,54.9,7,55 M28.6,55c-0.8,0.2-1.7,1.6-2.3,2.2
	l-5.2,5.6c-0.5,0.6-2.1,1.7-2,2.6c0.1,0.9,1.4,1.9,2,2.5l5.4,5.8c0.5,0.6,1.7,2.4,2.6,2.1c0.9-0.3,1.7-1.6,2.3-2.2l5.1-5.5
	c0.5-0.6,2.1-1.7,2.1-2.6c0-0.8-1.3-1.8-1.8-2.3l-5.7-6.2C30.6,56.5,29.5,54.8,28.6,55 M40.4,65.4c0.7,1.1,1.7,2,2.6,3l4.4,4.8
	c0.7,0.8,1.8,2.5,2.8,2.8c0.8,0.2,1.9-1.5,2.5-2.1l5.7-6.2c0.5-0.5,1.7-1.5,1.6-2.3c-0.1-0.9-1.4-1.9-2-2.5l-5.4-5.8
	c-0.5-0.5-1.6-2.3-2.5-2.1c-1,0.3-2.1,2-2.8,2.8L40.4,65.4 M71.8,55c-0.8,0.2-1.7,1.6-2.3,2.2l-5.2,5.6c-0.5,0.6-2.1,1.7-2,2.6
	c0.1,0.6,0.8,1.2,1.2,1.6l3.1,3.4l3.9,4.2c0.4,0.4,1,1.3,1.6,1.2c0.8-0.2,1.7-1.6,2.3-2.2l5.2-5.6c0.5-0.6,2.1-1.7,2-2.6
	c-0.1-0.6-0.8-1.2-1.2-1.6l-3.1-3.4l-3.9-4.2C73.1,55.8,72.5,54.9,71.8,55 M93.4,54.8l-9.8,10.6c0.7,1.1,1.7,2,2.6,3l4.7,5.1
	c0.6,0.6,1.7,2.4,2.6,2.4c0.6,0,1.2-0.9,1.6-1.4l3.8-4.1l3.1-3.4c0.4-0.4,1.1-1,1.1-1.6c0-0.9-1.7-2.2-2.3-2.8l-4.7-5.1
	C95.3,56.6,94.5,55.6,93.4,54.8 M105.2,65.4c0.7,1.1,1.7,2,2.6,3l4.4,4.8c0.7,0.8,1.8,2.5,2.8,2.8c0.8,0.2,1.9-1.5,2.5-2.1l5.7-6.2
	c0.5-0.5,1.7-1.5,1.6-2.3c-0.1-0.9-1.4-1.9-2-2.5l-5.4-5.8c-0.5-0.5-1.6-2.3-2.5-2.1c-1,0.3-2.1,2-2.8,2.8L105.2,65.4 M126.8,65.4
	c0.7,1.1,1.7,2,2.6,3l4.4,4.8c0.7,0.8,1.8,2.5,2.8,2.8c0.8,0.2,1.9-1.5,2.5-2.1l5.7-6.2c0.5-0.5,1.7-1.5,1.6-2.3
	c-0.1-0.9-1.4-1.9-2-2.5l-5.4-5.8c-0.5-0.5-1.6-2.3-2.5-2.1c-1,0.3-2.1,2-2.8,2.8L126.8,65.4 M158.4,54.8l-9.8,10.6
	c0.8,1.2,1.8,2.2,2.8,3.2l4.6,4.9c0.6,0.6,1.7,2.4,2.6,2.4c0.6,0,1.1-0.8,1.5-1.2c0.5-0.5,1.2-1.1,1.5-1.8c0.4-0.8,0.2-2.1,0.2-3V62
	c0-1.1,0.3-2.7-0.1-3.7C161.1,57,159.4,55.6,158.4,54.8 M18,66.3L10.8,74C10.2,74.7,9.6,75.3,9,76c-0.2,0.3-0.6,0.6-0.6,1.1
	s0.4,0.8,0.6,1.1c0.6,0.7,1.2,1.3,1.8,1.9l7.2,7.8c1.1-0.8,2-2,2.9-3l4.6-4.9c0.6-0.6,2.3-1.9,2.3-2.8s-1.7-2.2-2.3-2.8l-4.6-4.9
	C20,68.2,19.1,67.1,18,66.3 M39.6,66.3L32.4,74c-0.6,0.6-1.2,1.3-1.8,1.9C30.4,76.2,30,76.6,30,77s0.4,0.8,0.6,1.1
	c0.6,0.7,1.2,1.3,1.8,1.9l4.4,4.8c0.9,1,1.9,1.9,2.6,3c1.1-0.6,1.9-1.7,2.8-2.6l4.9-5.3c0.6-0.6,2.3-1.9,2.3-2.8s-1.7-2.2-2.3-2.8
	l-4.6-4.9C41.6,68.2,40.7,67.1,39.6,66.3 M61.2,66.3L54,74c-0.6,0.6-1.2,1.3-1.8,1.9c-0.2,0.3-0.6,0.6-0.6,1.1s0.4,0.8,0.6,1.1
	c0.6,0.7,1.2,1.3,1.8,1.9l4.4,4.8c0.9,1,1.9,1.9,2.6,3c1.1-0.6,1.9-1.7,2.8-2.6l4.9-5.3C69.3,79.2,71,78,71,77s-1.7-2.2-2.3-2.8
	L64,69.1C63.1,68.1,62.2,67,61.2,66.3 M82.8,66.3L75.6,74c-0.7,0.7-2.4,2-2.5,3c-0.1,0.8,1.2,1.8,1.6,2.3l5.7,6.2
	c0.5,0.5,1.5,2.1,2.3,2c0.5-0.1,1-0.7,1.3-1.1l2.9-3.2L91,79c0.5-0.5,1.4-1.2,1.5-1.9c0.1-1-1.6-2.2-2.1-2.8l-4.6-4.9
	C84.8,68.2,83.9,67.1,82.8,66.3 M104.4,66.3L97.2,74c-0.7,0.7-2.4,2-2.5,3c-0.1,0.8,1.2,1.8,1.6,2.3l5.7,6.2c0.5,0.5,1.5,2.1,2.3,2
	c0.5-0.1,1-0.7,1.3-1.1l2.9-3.2l3.9-4.2c0.5-0.5,1.4-1.2,1.5-1.9c0.1-1-1.6-2.2-2.1-2.8l-4.6-4.9C106.4,68.2,105.5,67.1,104.4,66.3
	 M126,66.3l-7.2,7.8c-0.6,0.6-1.2,1.3-1.8,1.9c-0.2,0.3-0.6,0.6-0.6,1.1s0.4,0.8,0.6,1.1c0.6,0.7,1.2,1.3,1.8,1.9l4.4,4.8
	c0.9,1,1.9,1.9,2.6,3c1.1-0.6,1.9-1.7,2.8-2.6l4.9-5.3c0.6-0.6,2.3-1.9,2.3-2.8s-1.7-2.2-2.3-2.8l-4.7-5.1
	C127.9,68.1,127,67,126,66.3 M137.8,77c0.9,1.4,2.3,2.6,3.4,3.9l6.4,6.9c1-0.8,1.9-1.9,2.8-2.8l4.7-5.1c0.6-0.6,2.3-1.9,2.3-2.8
	c0-0.7-0.9-1.3-1.3-1.8l-3.8-4.1l-3.1-3.4c-0.4-0.4-0.9-1.2-1.5-1.2c-0.4,0-0.7,0.4-1,0.7c-0.6,0.6-1.2,1.3-1.8,1.9L137.8,77
	 M161.5,74.9c-0.5,0.6-1.6,1.3-1.7,2.1c-0.2,0.9,1.3,2,1.9,2.5C161.7,78.1,162,76.2,161.5,74.9 M5.1,75.6v2.8
	C6.4,77.4,6.4,76.6,5.1,75.6 M17.2,88.7c-1.2-1.8-2.8-3.2-4.3-4.8L9,79.7c-0.4-0.5-1-1.4-1.6-1.5c-0.5-0.1-0.8,0.3-1.1,0.6
	c-0.9,0.9-1.1,1.5-1.1,2.8V95c0,1.4,0.2,2.1,1.1,3.2c0.3,0.3,0.6,0.7,1,0.7C8.1,99,9.4,97,10,96.4L17.2,88.7 M38.8,88.7
	c-0.7-1.1-1.7-2-2.6-3l-4.7-5.1c-0.6-0.6-1.7-2.4-2.6-2.4c-0.6,0-1.2,0.9-1.6,1.4l-3.8,4.1l-3.1,3.4c-0.4,0.4-1.1,1-1.1,1.6
	c0,0.8,1.3,1.8,1.8,2.3l5.6,6c0.5,0.6,1.6,2.2,2.5,2.1c1-0.1,2.1-2,2.8-2.7L38.8,88.7 M60.4,88.7c-0.7-1.1-1.7-2-2.6-3l-4.4-4.8
	c-0.7-0.8-1.8-2.5-2.8-2.8c-0.8-0.2-1.9,1.5-2.5,2.1l-5.7,6.2c-0.5,0.5-1.7,1.5-1.6,2.3c0.1,0.9,1.4,1.9,2,2.5l5.4,5.8
	c0.5,0.6,1.6,2.2,2.5,2c1.1-0.2,2.2-2.1,2.9-2.9L60.4,88.7 M82,88.7c-0.7-1.1-1.7-2-2.6-3l-4.4-4.8c-0.7-0.8-1.8-2.5-2.8-2.8
	c-0.8-0.2-1.9,1.5-2.5,2.1L64,86.4c-0.5,0.5-1.7,1.5-1.6,2.3c0.1,0.9,1.4,1.9,2,2.5c1.8,1.9,3.5,3.9,5.4,5.8c0.5,0.5,1.7,2.2,2.5,2
	c1.1-0.3,2.2-2.1,2.9-2.9L82,88.7 M83.6,88.5c0.7,1.1,1.7,2,2.6,3l4.6,4.9c0.6,0.7,1.8,2.5,2.8,2.5s2.2-1.9,2.8-2.5l7.2-7.8
	c-0.7-1.1-1.7-2-2.6-3l-4.7-5.1c-0.6-0.6-1.7-2.4-2.6-2.4c-0.4,0-0.7,0.4-1,0.7c-0.6,0.6-1.2,1.3-1.8,1.9L83.6,88.5 M105.2,88.5
	c0.7,1.1,1.7,2,2.6,3l4.6,4.9c0.6,0.7,1.8,2.5,2.8,2.5s2.2-1.9,2.8-2.5l7.2-7.8c-0.8-1.2-1.8-2.2-2.8-3.2l-4.6-4.9
	c-0.6-0.6-1.7-2.4-2.6-2.4c-0.4,0-0.7,0.4-1,0.7c-0.6,0.6-1.2,1.3-1.8,1.9L105.2,88.5 M126.8,88.5c0.7,1.1,1.7,2,2.6,3l4.6,4.9
	c0.6,0.7,1.8,2.5,2.8,2.5s2.2-1.9,2.8-2.5l7.2-7.8c-0.7-1.1-1.7-2-2.6-3l-4.7-5.1c-0.6-0.6-1.7-2.4-2.6-2.4c-0.4,0-0.7,0.4-1,0.7
	c-0.6,0.6-1.2,1.3-1.8,1.9L126.8,88.5 M158.2,78.1c-0.8,0.2-1.6,1.5-2.1,2.1l-5.2,5.6c-0.5,0.6-2.1,1.7-2.1,2.6
	c0,0.6,0.7,1.2,1.1,1.6l3.4,3.7l3.8,4.1c0.4,0.4,1,1.3,1.6,1.2c0.4-0.1,0.7-0.5,1-0.8c0.6-0.7,1.7-1.5,1.9-2.5
	c0.4-1.5,0.1-3.5,0.1-5.1v-5.8c0-1,0.1-2,0-3c-0.2-1.2-1.5-2.2-2.3-3C159.1,78.5,158.7,78,158.2,78.1 M18,89.4L8.2,99.9
	c0.7,1.1,1.7,2,2.6,3l4.6,4.9c0.6,0.6,1.7,2.4,2.6,2.4c0.5,0,1-0.7,1.3-1l3.1-3.4l3.9-4.2c0.4-0.4,1.3-1.1,1.3-1.8
	c0-0.9-1.7-2.2-2.3-2.8l-4.6-4.9C19.9,91.2,19,90.1,18,89.4 M39.6,89.4l-9.8,10.6c0.7,1.1,1.7,2,2.6,3l4.6,4.9
	c0.6,0.6,1.7,2.4,2.6,2.4c0.5,0,1-0.7,1.3-1l3.1-3.4l3.9-4.2c0.4-0.4,1.3-1.1,1.3-1.8c0-0.9-1.7-2.2-2.3-2.8l-4.6-4.9
	C41.5,91.2,40.6,90.1,39.6,89.4 M61.2,89.4l-9.8,10.6c0.7,1.1,1.7,2,2.6,3l4.6,4.9c0.6,0.6,1.7,2.4,2.6,2.4c0.5,0,1-0.7,1.3-1
	l3.1-3.4l3.9-4.2c0.4-0.4,1.3-1.1,1.3-1.8c0-0.9-1.7-2.2-2.3-2.8L64,92.2C63.1,91.2,62.2,90.1,61.2,89.4 M82.8,89.4L73,99.9
	c0.7,1.1,1.7,2,2.6,3l4.6,4.9c0.6,0.6,1.7,2.4,2.6,2.4c0.5,0,1-0.7,1.3-1l3.1-3.4l3.9-4.2c0.4-0.4,1.3-1.1,1.3-1.8
	c0-0.9-1.7-2.2-2.3-2.8l-4.6-4.9C84.7,91.2,83.8,90.1,82.8,89.4 M104.4,89.4l-7,7.6c-0.7,0.8-2.3,1.9-2.6,3
	c-0.2,0.9,1.4,2.1,1.9,2.6l5.4,5.8c0.5,0.6,1.3,1.9,2.1,2c0.8,0.1,1.6-1.3,2.1-1.8l5.7-6.2c0.5-0.5,2.1-1.8,1.9-2.6
	c-0.2-1.1-1.9-2.2-2.6-3C109.2,94.3,107,91.3,104.4,89.4 M126,89.4l-9.8,10.6c0.7,1.1,1.7,2,2.6,3l4.6,4.9c0.6,0.6,1.7,2.4,2.6,2.4
	c0.6,0,1.2-0.9,1.6-1.4l3.9-4.2l3.1-3.4c0.3-0.4,0.9-0.9,0.9-1.4c0-0.9-1.7-2.2-2.3-2.8l-4.6-4.9C127.9,91.2,127,90.1,126,89.4
	 M147.4,110.7c1.2-0.6,2.2-2,3.1-3l4.7-5.1c0.8-0.9,1.8-1.7,2.3-2.8c-2.6-2-4.8-5-7-7.4c-0.7-0.7-1.8-2.5-2.8-2.7
	c-0.8-0.1-1.6,1.3-2.1,1.8l-5.7,6.2c-0.5,0.6-2.1,1.7-1.8,2.6c0.4,1.1,1.8,2.2,2.6,3C142.9,105.7,145.7,108,147.4,110.7 M161.5,98
	l-2,2.1c0.6,0.9,1.3,1.7,2.1,2.3C161.7,101.1,162,99.2,161.5,98 M5.1,98.7v2.5C6.2,100.3,6.2,99.6,5.1,98.7 M7.2,122.2
	c1.3-1,2.4-2.5,3.6-3.7l6.4-6.9c-0.7-1.1-1.7-2-2.6-3l-4.7-5.1c-0.6-0.6-1.9-2.6-2.8-2.4c-0.4,0.1-0.7,0.5-1,0.8c-1.3,1.4-1,3-1,4.8
	v9c0,1.2-0.3,2.9,0.1,4.1C5.5,120.7,6.5,121.5,7.2,122.2 M28.8,122.2c1.3-1,2.4-2.5,3.6-3.7l6.4-6.9c-0.7-1.1-1.7-2-2.6-3l-4.7-5.1
	c-0.6-0.6-1.7-2.4-2.6-2.4c-0.6,0-1.2,0.9-1.6,1.4l-3.8,4.1l-3.1,3.4c-0.4,0.4-1.1,1-1.1,1.6c0,0.4,0.4,0.8,0.6,1.1
	c0.6,0.7,1.2,1.3,1.8,1.9L28.8,122.2 M50.4,122.2c1.3-1,2.4-2.5,3.6-3.7l6.4-6.9c-0.8-1.2-1.8-2.2-2.8-3.2l-4.6-4.9
	c-0.6-0.6-1.7-2.4-2.6-2.4c-0.6,0-1.2,0.9-1.6,1.4l-3.8,4.1l-3.1,3.4c-0.4,0.4-1.1,1-1.1,1.6c0,0.4,0.4,0.8,0.6,1.1
	c0.6,0.7,1.2,1.3,1.8,1.9L50.4,122.2 M72,122.2c1.3-1,2.4-2.5,3.6-3.7l6.4-6.9c-0.8-1.2-1.8-2.2-2.8-3.2l-4.6-4.9
	c-0.6-0.6-1.7-2.4-2.6-2.4c-0.6,0-1.2,0.9-1.6,1.4l-3.8,4.1l-3.1,3.4c-0.4,0.4-1.1,1-1.1,1.6c0,0.4,0.4,0.8,0.6,1.1
	c0.6,0.7,1.2,1.3,1.8,1.9L72,122.2 M93.6,122.2c1.3-1,2.4-2.5,3.6-3.7l6.4-6.9c-0.8-1.2-1.8-2.2-2.8-3.2l-4.6-4.9
	c-0.6-0.6-1.7-2.4-2.6-2.4c-0.6,0-1.2,0.9-1.6,1.4l-3.8,4.1l-3.1,3.4c-0.4,0.4-1.1,1-1.1,1.6c0,0.4,0.4,0.8,0.6,1.1
	c0.6,0.7,1.2,1.3,1.8,1.9L93.6,122.2 M115.2,122.2c1.3-1,2.4-2.5,3.6-3.7l6.4-6.9c-0.8-1.2-1.8-2.2-2.8-3.2l-4.6-4.9
	c-0.6-0.6-1.7-2.4-2.6-2.4c-0.6,0-1.2,0.9-1.6,1.4l-3.8,4.1l-3.1,3.4c-0.4,0.4-1.1,1-1.1,1.6c0,0.4,0.4,0.8,0.6,1.1
	c0.6,0.7,1.2,1.3,1.8,1.9L115.2,122.2 M136.8,122.2c1.3-1,2.4-2.5,3.6-3.7l6.4-6.9c-0.7-1.1-1.7-2-2.6-3l-4.7-5.1
	c-0.6-0.6-1.7-2.4-2.6-2.4c-0.6,0-1.2,0.9-1.6,1.4l-3.8,4.1l-3.1,3.4c-0.4,0.4-1.1,1-1.1,1.6c0,0.4,0.4,0.8,0.6,1.1
	c0.6,0.7,1.2,1.3,1.8,1.9L136.8,122.2 M158.4,122.2c1-0.8,2.5-2.1,3.1-3.4c0.5-1.2,0.2-3.3,0.2-4.6v-6.9c0-1,0.2-2.3-0.1-3.2
	c-0.3-0.9-1.2-1.6-1.9-2.3c-0.3-0.3-0.6-0.7-1-0.9c-0.9-0.3-1.9,1.3-2.5,1.9l-5.7,6.2c-0.5,0.5-1.9,1.6-1.7,2.5
	c0.2,1.1,1.9,2.2,2.6,3L158.4,122.2 M18,112.3l-7,7.6c-0.7,0.8-2.3,1.9-2.6,3c-0.2,0.8,1.1,1.8,1.6,2.3l5.7,6.2
	c0.5,0.5,1.6,2.3,2.5,2.1c1-0.3,2.1-2,2.8-2.8l7-7.6c-1.3-2-3.3-3.7-4.9-5.5C21.4,115.8,19.9,113.7,18,112.3 M39.6,112.3l-7,7.6
	c-0.7,0.8-2.3,1.9-2.6,3c-0.2,0.9,1.4,2.1,1.9,2.6l5.7,6.2c0.5,0.5,1.4,1.9,2.1,1.7c1-0.3,2.1-2,2.8-2.8l7-7.6
	c-1.3-2-3.3-3.7-4.9-5.5C43.1,115.8,41.5,113.7,39.6,112.3 M61.2,112.3l-7,7.6c-0.7,0.8-2.3,1.9-2.6,3c-0.2,0.8,1.1,1.8,1.6,2.3
	l5.7,6.2c0.5,0.5,1.6,2.3,2.5,2.1c1-0.3,2.1-2,2.8-2.8l7-7.6c-1.3-2-3.3-3.7-4.9-5.5C64.7,115.8,63.1,113.7,61.2,112.3 M82.8,112.3
	l-7,7.6c-0.7,0.8-2.3,1.9-2.6,3c-0.2,0.8,1.1,1.8,1.6,2.3l5.7,6.2c0.5,0.5,1.6,2.3,2.5,2.1c1-0.3,2.1-2,2.8-2.8l7-7.6
	c-1.3-2-3.3-3.7-4.9-5.5C86.3,115.8,84.7,113.7,82.8,112.3 M104.4,112.3l-7,7.6c-0.7,0.8-2.3,1.9-2.6,3c-0.2,0.8,1.1,1.8,1.6,2.3
	l5.7,6.2c0.5,0.5,1.6,2.3,2.5,2.1c1-0.3,2.1-2,2.8-2.8l7-7.6c-1.3-2-3.3-3.7-4.9-5.5C107.9,115.8,106.3,113.7,104.4,112.3
	 M126,112.3l-7,7.6c-0.7,0.8-2.3,1.9-2.6,3c-0.2,0.8,1.1,1.8,1.6,2.3l5.7,6.2c0.5,0.5,1.6,2.3,2.5,2.1c1-0.3,2.1-2,2.8-2.8l7-7.6
	c-1.3-2-3.3-3.7-4.9-5.5C129.5,115.8,127.9,113.7,126,112.3 M147.6,112.5c-0.8,0.2-1.7,1.6-2.3,2.2l-5.2,5.6
	c-0.5,0.6-2.1,1.7-2.1,2.6c0,0.8,1.3,1.8,1.8,2.3l5.6,6c0.5,0.5,1.6,2.3,2.5,2.1c0.8-0.2,1.7-1.6,2.3-2.2l5.2-5.6
	c0.5-0.6,2.1-1.7,2.1-2.6c0-0.8-1.3-1.8-1.8-2.3l-5.6-6C149.6,114,148.4,112.3,147.6,112.5 M161.5,120.9c-0.5,0.6-1.6,1.3-1.7,2.1
	c-0.2,0.9,1.3,2,1.9,2.5C161.7,124.2,162,122.2,161.5,120.9 M5.1,121.6v2.6c0.5-0.4,0.9-0.8,1.3-1.2C6,122.5,5.6,122,5.1,121.6
	 M93.4,123.8l-7,7.6c-0.7,0.7-2.4,2-2.5,3c-0.1,1,1.7,2.4,2.3,3l7.4,7.9c1.3-1,2.4-2.5,3.6-3.7l6.4-6.9c-1.3-2-3.3-3.7-4.9-5.5
	C97,127.4,95.4,125.2,93.4,123.8 M158.4,123.8l-7.2,7.8c-0.6,0.6-1.2,1.3-1.8,1.9c-0.2,0.3-0.6,0.6-0.6,1.1s0.4,0.8,0.6,1.1
	c0.6,0.7,1.2,1.3,1.8,1.9l7.2,7.8c1-0.8,2.5-2.1,3.1-3.4c0.2-0.5,0.2-1.2,0.2-1.8v-3.5v-6.4c0-0.9,0.2-2.1-0.1-3
	C161.1,126,159.4,124.5,158.4,123.8 M7.2,145.3c1.3-1,2.4-2.5,3.6-3.7l6.4-6.9c-0.8-1.2-1.8-2.2-2.8-3.2l-4.7-5.1
	c-0.5-0.6-1.8-2.5-2.6-2.2c-0.4,0.1-0.7,0.5-1,0.8c-1.3,1.4-1,3-1,4.8v9c0,1.2-0.3,2.9,0.1,4.1C5.5,143.8,6.5,144.6,7.2,145.3
	 M28.8,145.3c2.5-1.9,4.6-4.7,6.7-7.1c1.1-1.2,2.6-2.4,3.3-3.9c-2.6-2-4.8-5-7-7.4c-0.7-0.8-1.8-2.5-2.8-2.8
	c-0.8-0.2-1.7,1.2-2.1,1.7l-5.7,6.2c-0.5,0.5-2.1,1.8-1.9,2.6c0.2,1.1,1.9,2.2,2.6,3L28.8,145.3 M50.4,145.3c1.3-1,2.4-2.5,3.6-3.7
	l6.4-6.9c-0.8-1.2-1.8-2.2-2.8-3.2l-4.6-4.9c-0.6-0.6-1.7-2.4-2.6-2.4c-0.6,0-1.2,0.9-1.6,1.4l-3.8,4.1l-3.1,3.4
	c-0.4,0.4-1.1,1-1.1,1.6c0,0.4,0.4,0.8,0.6,1.1c0.6,0.7,1.2,1.3,1.8,1.9L50.4,145.3 M72,145.3c1.3-1,2.4-2.5,3.6-3.7l6.4-6.9
	c-0.8-1.2-1.8-2.2-2.8-3.2l-4.6-4.9c-0.6-0.6-1.7-2.4-2.6-2.4c-0.6,0-1.2,0.9-1.6,1.4l-3.8,4.1l-3.1,3.4c-0.4,0.4-1.1,1-1.1,1.6
	c0,0.4,0.4,0.8,0.6,1.1c0.6,0.7,1.2,1.3,1.8,1.9L72,145.3 M115.2,145.3c1.3-1,2.4-2.5,3.6-3.7l6.4-6.9c-0.7-1.1-1.7-2-2.6-3
	l-4.6-4.9c-0.7-0.7-1.8-2.5-2.8-2.7c-0.8-0.1-1.6,1.3-2.1,1.8l-5.7,6.2c-0.5,0.5-1.9,1.6-1.8,2.5c0.1,1,1.8,2.3,2.5,3L115.2,145.3
	 M136.8,145.3c1.3-1,2.4-2.5,3.6-3.7l6.4-6.9c-0.7-1.1-1.7-2-2.6-3l-4.7-5.1c-0.6-0.6-1.7-2.4-2.6-2.4c-0.6,0-1.2,0.9-1.6,1.4
	l-3.8,4.1l-3.1,3.4c-0.4,0.4-1.1,1-1.1,1.6c0,0.4,0.4,0.8,0.6,1.1c0.6,0.7,1.2,1.3,1.8,1.9L136.8,145.3 M18,135.6
	c-0.8,0.2-1.7,1.6-2.3,2.2l-5.2,5.6c-0.5,0.6-2.1,1.7-2.1,2.6c0,0.8,1.3,1.8,1.8,2.3l5.6,6c0.5,0.5,1.6,2.3,2.5,2.1
	c0.8-0.2,1.7-1.6,2.3-2.2l5.2-5.6c0.5-0.6,2.1-1.7,2.1-2.6c0-0.8-1.3-1.8-1.8-2.3l-5.6-6C19.9,137.2,18.8,135.4,18,135.6
	 M39.6,135.4l-7,7.6c-0.7,0.8-2.3,1.9-2.6,3c-0.2,0.9,1.4,2.1,1.9,2.6l5.7,6.2c0.5,0.5,1.4,1.9,2.1,1.7c1-0.3,2.1-2,2.8-2.8l7-7.6
	c-1.3-2-3.3-3.7-4.9-5.5C43.1,138.9,41.5,136.8,39.6,135.4 M61.2,135.4l-7,7.6c-0.7,0.8-2.3,1.9-2.6,3c-0.2,0.9,1.4,2.1,1.9,2.6
	l5.7,6.2c0.5,0.5,1.4,1.9,2.1,1.7c1-0.3,2.1-2,2.8-2.8l7-7.6c-1.3-2-3.3-3.7-4.9-5.5S63.1,136.8,61.2,135.4 M72.8,146
	c0.7,1.1,1.7,2,2.6,3l4.7,5.1c0.6,0.6,1.7,2.4,2.6,2.4c0.4,0,0.7-0.4,1-0.7c0.6-0.6,1.2-1.3,1.8-1.9l7.2-7.8C92,145,91,144,90,143
	l-4.6-4.9c-0.6-0.6-1.7-2.4-2.6-2.4c-0.4,0-0.7,0.4-1,0.7c-0.6,0.6-1.2,1.3-1.8,1.9L72.8,146 M114.4,146.2c-0.7-1.1-1.7-2-2.6-3
	l-4.4-4.8c-0.7-0.8-1.8-2.5-2.8-2.8c-0.8-0.2-1.9,1.5-2.5,2.1l-5.7,6.2c-0.5,0.5-1.7,1.5-1.6,2.3c0.1,0.9,1.4,1.9,2,2.5l5.4,5.8
	c0.5,0.5,1.6,2.3,2.5,2.1c1-0.3,2.1-2,2.8-2.8L114.4,146.2 M126,135.4l-7,7.6c-0.7,0.8-2.3,1.9-2.6,3c-0.2,0.9,1.4,2.1,1.9,2.6
	l5.7,6.2c0.5,0.5,1.4,1.9,2.1,1.7c1-0.3,2.1-2,2.8-2.8l7-7.6c-1.3-2-3.3-3.7-4.9-5.5C129.5,138.9,127.9,136.8,126,135.4 M137.8,146
	c0.7,1.1,1.7,2,2.6,3l4.4,4.8c0.7,0.8,1.8,2.5,2.8,2.8c0.8,0.2,1.9-1.5,2.5-2.1l5.7-6.2c0.5-0.5,1.7-1.5,1.6-2.3
	c-0.1-0.9-1.4-1.9-2-2.5l-5.4-5.8c-0.5-0.5-1.6-2.3-2.5-2.1c-1,0.3-2.1,2-2.8,2.8L137.8,146 M161.5,144.1c-0.5,0.6-1.6,1.3-1.7,2.1
	c-0.2,0.9,1.3,2,1.9,2.5C161.7,147.3,162,145.3,161.5,144.1 M5.1,144.8v2.6C6.2,146.5,6.5,145.5,5.1,144.8 M7.2,168.4
	c1.3-1,2.4-2.5,3.6-3.7l6.4-6.9c-0.8-1.2-1.8-2.2-2.8-3.2l-4.7-5.1c-0.5-0.6-1.8-2.5-2.6-2.2c-0.4,0.1-0.7,0.5-1,0.8
	c-1.3,1.4-1,3-1,4.8v9c0,1.2-0.3,2.9,0.1,4.1C5.5,166.9,6.5,167.7,7.2,168.4 M28.8,168.4c1.3-1,2.4-2.5,3.6-3.7l6.4-6.9
	c-0.7-1.1-1.7-2-2.6-3l-4.7-5.1c-0.6-0.6-1.7-2.4-2.6-2.4c-0.6,0-1.2,0.9-1.6,1.4l-3.8,4.1l-3.1,3.4c-0.4,0.4-1.1,1-1.1,1.6
	c0,0.4,0.4,0.8,0.6,1.1c0.6,0.7,1.2,1.3,1.8,1.9L28.8,168.4 M50.4,168.4c1.3-1,2.4-2.5,3.6-3.7l6.4-6.9c-0.7-1.1-1.7-2-2.6-3
	l-4.7-5.1c-0.6-0.6-1.7-2.4-2.6-2.4c-0.6,0-1.2,0.9-1.6,1.4l-3.8,4.1l-3.1,3.4c-0.4,0.4-1.1,1-1.1,1.6c0,0.4,0.4,0.8,0.6,1.1
	c0.6,0.7,1.2,1.3,1.8,1.9L50.4,168.4 M72,168.4c1.3-1,2.4-2.5,3.6-3.7l6.4-6.9c-0.8-1.2-1.8-2.2-2.8-3.2l-4.6-4.9
	c-0.6-0.6-1.7-2.4-2.6-2.4c-0.6,0-1.2,0.9-1.6,1.4l-3.8,4.1l-3.1,3.4c-0.4,0.4-1.1,1-1.1,1.6c0,0.4,0.4,0.8,0.6,1.1
	c0.6,0.7,1.2,1.3,1.8,1.9L72,168.4 M93.6,168.4c1.3-1,2.4-2.5,3.6-3.7l6.4-6.9c-0.7-1.1-1.7-2-2.6-3l-4.7-5.1
	c-0.6-0.6-1.7-2.4-2.6-2.4c-0.6,0-1.2,0.9-1.6,1.4l-3.8,4.1l-3.1,3.4c-0.4,0.4-1.1,1-1.1,1.6c0,0.4,0.4,0.8,0.6,1.1
	c0.6,0.7,1.2,1.3,1.8,1.9L93.6,168.4 M115.2,168.4c1.3-1,2.4-2.5,3.6-3.7l6.4-6.9c-0.7-1.1-1.7-2-2.6-3l-4.7-5.1
	c-0.6-0.6-1.7-2.4-2.6-2.4c-0.6,0-1.2,0.9-1.6,1.4l-3.8,4.1l-3.1,3.4c-0.4,0.4-1.1,1-1.1,1.6c0,0.4,0.4,0.8,0.6,1.1
	c0.6,0.7,1.2,1.3,1.8,1.9L115.2,168.4 M136.8,168.4c1.3-1,2.4-2.5,3.6-3.7l6.4-6.9c-0.8-1.2-1.8-2.2-2.8-3.2l-4.6-4.9
	c-0.6-0.6-1.7-2.4-2.6-2.4c-0.6,0-1.2,0.9-1.6,1.4l-3.8,4.1l-3.1,3.4c-0.4,0.4-1.1,1-1.1,1.6c0,0.4,0.4,0.8,0.6,1.1
	c0.6,0.7,1.2,1.3,1.8,1.9L136.8,168.4 M158.4,168.4c1-0.8,2.5-2.1,3.1-3.4c0.5-1.2,0.2-3.3,0.2-4.6v-6.9c0-1,0.2-2.3-0.1-3.2
	c-0.3-0.9-1.2-1.6-1.9-2.3c-0.3-0.3-0.6-0.7-1-0.9c-0.9-0.3-1.9,1.3-2.5,1.9l-5.7,6.2c-0.5,0.5-1.9,1.6-1.7,2.5
	c0.2,1.1,1.9,2.2,2.6,3L158.4,168.4 M18,158.5l-7,7.6c-0.7,0.8-2.3,1.9-2.6,3c-0.2,0.8,1.1,1.8,1.6,2.3l5.7,6.2
	c0.5,0.5,1.6,2.3,2.5,2.1c1-0.3,2.1-2,2.8-2.8l7-7.6c-1.3-2-3.3-3.7-4.9-5.5S19.9,159.9,18,158.5 M39.6,158.5l-7,7.6
	c-0.7,0.8-2.3,1.9-2.6,3c-0.2,0.8,1.1,1.8,1.6,2.3l5.7,6.2c0.5,0.5,1.6,2.3,2.5,2.1c1-0.3,2.1-2,2.8-2.8l7-7.6
	c-1.3-2-3.3-3.7-4.9-5.5C43.1,162.1,41.5,159.9,39.6,158.5 M61.2,158.5l-7,7.6c-0.7,0.8-2.3,1.9-2.6,3c-0.2,0.8,1.1,1.8,1.6,2.3
	l5.7,6.2c0.5,0.5,1.6,2.3,2.5,2.1c1-0.3,2.1-2,2.8-2.8l7-7.6c-1.3-2-3.3-3.7-4.9-5.5S63.1,159.9,61.2,158.5 M82.8,158.5l-7,7.6
	c-0.7,0.8-2.3,1.9-2.6,3c-0.2,0.8,1.1,1.8,1.6,2.3l5.7,6.2c0.5,0.5,1.6,2.3,2.5,2.1c1-0.3,2.1-2,2.8-2.8l7-7.6
	c-1.3-2-3.3-3.7-4.9-5.5C86.3,162.1,84.7,159.9,82.8,158.5 M104.4,158.5l-7,7.6c-0.7,0.8-2.3,1.9-2.6,3c-0.2,0.9,1.4,2.1,1.9,2.6
	l5.7,6.2c0.5,0.5,1.4,1.9,2.1,1.7c1-0.3,2.1-2,2.8-2.8l7-7.6c-1.3-2-3.3-3.7-4.9-5.5C107.9,162.1,106.3,159.9,104.4,158.5
	 M126,158.5l-7,7.6c-0.7,0.8-2.3,1.9-2.6,3c-0.2,0.8,1.1,1.8,1.6,2.3l5.7,6.2c0.5,0.5,1.6,2.3,2.5,2.1c1-0.3,2.1-2,2.8-2.8l7-7.6
	c-1.3-2-3.3-3.7-4.9-5.5C129.5,162.1,127.9,159.9,126,158.5 M147.6,158.8c-0.8,0.2-1.7,1.6-2.3,2.2l-5.2,5.6
	c-0.5,0.6-2.1,1.7-2.1,2.6c0,0.8,1.3,1.8,1.8,2.3l5.6,6c0.5,0.5,1.6,2.3,2.5,2.1c0.8-0.2,1.7-1.6,2.3-2.2l5.2-5.6
	c0.5-0.6,2.1-1.7,2.1-2.6c0-0.8-1.3-1.8-1.8-2.3l-5.6-6C149.6,160.3,148.4,158.5,147.6,158.8 M161.5,167.2c-0.5,0.6-1.6,1.3-1.7,2.1
	c-0.2,0.9,1.3,2,1.9,2.5C161.7,170.4,162,168.4,161.5,167.2 M5.1,167.9v2.6c0.5-0.4,0.9-0.8,1.3-1.2C6,168.7,5.6,168.3,5.1,167.9
	 M93.4,170l-7,7.6c-0.7,0.7-2.4,2-2.5,3c-0.1,1,1.7,2.4,2.3,3l7.4,7.9c1.3-1,2.4-2.5,3.6-3.7l6.4-6.9c-1.3-2-3.3-3.7-4.9-5.5
	C97,173.6,95.4,171.5,93.4,170 M158.4,170l-7.2,7.8c-0.6,0.6-1.2,1.3-1.8,1.9c-0.2,0.3-0.6,0.6-0.6,1.1c0,0.4,0.4,0.8,0.6,1.1
	c0.6,0.7,1.2,1.3,1.8,1.9l7.2,7.8c1-0.8,2.5-2.1,3.1-3.4c0.2-0.5,0.2-1.2,0.2-1.8v-3.5v-6.4c0-0.9,0.2-2.1-0.1-3
	C161.1,172.2,159.4,170.8,158.4,170 M7.2,191.5c1.3-1,2.4-2.5,3.6-3.7l6.4-6.9c-0.8-1.2-1.8-2.2-2.8-3.2l-4.7-5.1
	c-0.5-0.6-1.8-2.5-2.6-2.2c-0.4,0.1-0.7,0.5-1,0.8c-1.3,1.4-1,3-1,4.8v9c0,1.2-0.3,2.9,0.1,4.1C5.5,190,6.5,190.8,7.2,191.5
	 M28.8,191.5c2.5-1.9,4.6-4.7,6.7-7.1c1.1-1.2,2.6-2.4,3.3-3.9c-2.6-2-4.8-5-7-7.4c-0.7-0.8-1.8-2.5-2.8-2.8
	c-0.8-0.2-1.9,1.5-2.5,2.1l-5.7,6.2c-0.5,0.5-1.8,1.5-1.6,2.3c0.2,1.1,1.9,2.2,2.6,3L28.8,191.5 M50.4,191.5c1.3-1,2.4-2.5,3.6-3.7
	l6.4-6.9c-0.7-1.1-1.7-2-2.6-3l-4.7-5.1c-0.6-0.6-1.7-2.4-2.6-2.4c-0.6,0-1.2,0.9-1.6,1.4l-3.8,4.1l-3.1,3.4c-0.4,0.4-1.1,1-1.1,1.6
	c0,0.4,0.4,0.8,0.6,1.1c0.6,0.7,1.2,1.3,1.8,1.9L50.4,191.5 M72,191.5c1.3-1,2.4-2.5,3.6-3.7l6.4-6.9c-0.8-1.2-1.8-2.2-2.8-3.2
	l-4.6-4.9c-0.6-0.6-1.7-2.4-2.6-2.4c-0.6,0-1.2,0.9-1.6,1.4l-3.8,4.1l-3.1,3.4c-0.4,0.4-1.1,1-1.1,1.6c0,0.4,0.4,0.8,0.6,1.1
	c0.6,0.7,1.2,1.3,1.8,1.9L72,191.5 M115.2,191.5c1.3-1,2.4-2.5,3.6-3.7l6.4-6.9c-0.7-1.1-1.7-2-2.6-3L118,173
	c-0.7-0.7-1.8-2.5-2.8-2.7c-0.8-0.1-1.8,1.4-2.3,2l-5.7,6.2c-0.5,0.5-1.7,1.5-1.6,2.3c0.1,1,1.8,2.3,2.5,3L115.2,191.5 M136.8,191.5
	c1.3-1,2.4-2.5,3.6-3.7l6.4-6.9c-0.8-1.2-1.8-2.2-2.8-3.2l-4.6-4.9c-0.6-0.6-1.7-2.4-2.6-2.4c-0.6,0-1.2,0.9-1.6,1.4l-3.8,4.1
	l-3.1,3.4c-0.4,0.4-1.1,1-1.1,1.6c0,0.4,0.4,0.8,0.6,1.1c0.6,0.7,1.2,1.3,1.8,1.9L136.8,191.5 M18,181.9c-0.8,0.2-1.7,1.6-2.3,2.2
	l-5.2,5.6c-0.5,0.6-2.1,1.7-2.1,2.6c0,0.7,0.9,1.3,1.3,1.8l3.6,3.9l3.4,3.7c0.4,0.4,0.9,1.1,1.5,1.1c0.8-0.1,1.7-1.5,2.3-2.1
	l5.4-5.8c0.5-0.6,2.1-1.7,2-2.6c-0.1-0.7-0.9-1.3-1.3-1.8l-3.4-3.7l-3.6-3.9C19.1,182.5,18.6,181.7,18,181.9 M39.6,181.6l-7,7.6
	c-0.7,0.8-2.3,1.9-2.6,3c-0.2,0.8,1.1,1.8,1.6,2.3l5.7,6.2c0.5,0.5,1.6,2.3,2.5,2.1c1-0.3,2.1-2,2.8-2.8l7-7.6
	c-1.3-2-3.3-3.7-4.9-5.5C43.1,185.2,41.5,183.1,39.6,181.6 M61.2,181.6l-7,7.6c-0.7,0.8-2.3,1.9-2.6,3c-0.2,0.9,1.4,2.1,1.9,2.6
	l5.4,5.8c0.6,0.6,1.5,2,2.3,2.1c0.8,0.1,1.6-1.3,2.1-1.8l5.7-6.2c0.5-0.6,2.1-1.7,1.9-2.6c-0.2-1-1.8-2.1-2.4-2.8l-4.6-4.9
	C63.1,183.5,62.2,182.4,61.2,181.6 M72.8,192.2c0.7,1.1,1.7,2,2.6,3l4.7,5.1c0.6,0.6,1.7,2.4,2.6,2.4c0.4,0,0.7-0.4,1-0.7
	c0.6-0.6,1.2-1.3,1.8-1.9l7.2-7.8c-0.7-1.1-1.7-2-2.6-3l-4.7-5.1c-0.6-0.6-1.7-2.4-2.6-2.4c-0.4,0-0.7,0.4-1,0.7
	c-0.6,0.6-1.2,1.3-1.8,1.9L72.8,192.2 M114.4,192.4c-0.7-1.1-1.7-2-2.6-3l-4.4-4.8c-0.7-0.8-1.8-2.5-2.8-2.8
	c-0.8-0.2-1.9,1.5-2.5,2.1l-5.7,6.2c-0.5,0.5-1.7,1.5-1.6,2.3c0.1,0.9,1.4,1.9,2,2.5l5.4,5.8c0.5,0.5,1.6,2.3,2.5,2.1
	c1-0.3,2.1-2,2.8-2.8L114.4,192.4 M126,181.6l-7,7.6c-0.7,0.8-2.3,1.9-2.6,3c-0.2,0.8,1.1,1.8,1.6,2.3l5.7,6.2
	c0.5,0.5,1.6,2.3,2.5,2.1c1-0.3,2.1-2,2.8-2.8l7-7.6c-1.3-2-3.3-3.7-4.9-5.5C129.5,185.2,127.9,183.1,126,181.6 M137.8,192.2
	c0.7,1.1,1.7,2,2.6,3l4.7,5.1c0.6,0.6,1.7,2.4,2.6,2.4c0.4,0,0.7-0.4,1-0.7c0.6-0.6,1.2-1.3,1.8-1.9l7.2-7.8c-0.7-1.1-1.7-2-2.6-3
	l-4.7-5.1c-0.6-0.6-1.7-2.4-2.6-2.4c-0.4,0-0.7,0.4-1,0.7c-0.6,0.6-1.2,1.3-1.8,1.9L137.8,192.2 M161.5,190.3
	c-0.5,0.6-1.6,1.3-1.7,2.1c-0.2,0.9,1.3,2,1.9,2.5C161.7,193.5,162,191.5,161.5,190.3 M5.1,191v2.6C6.5,192.9,6.5,191.7,5.1,191
	 M7.2,214.6c1.3-1,2.4-2.5,3.6-3.7l6.4-6.9c-0.7-1.1-1.7-2-2.6-3l-4.7-5.1c-0.6-0.6-1.9-2.6-2.8-2.4c-0.4,0.1-0.7,0.5-1,0.8
	c-1.3,1.4-1,3-1,4.8v9c0,1.2-0.3,2.9,0.1,4.1C5.5,213.1,6.5,213.9,7.2,214.6 M28.8,214.6c1.3-1,2.4-2.5,3.6-3.7l6.4-6.9
	c-0.7-1.1-1.7-2-2.6-3l-4.7-5.1c-0.6-0.6-1.7-2.4-2.6-2.4c-0.6,0-1.2,0.9-1.6,1.4l-3.8,4.1l-3.1,3.4c-0.4,0.4-1.1,1-1.1,1.6
	c0,0.4,0.4,0.8,0.6,1.1c0.6,0.7,1.2,1.3,1.8,1.9L28.8,214.6 M60.4,204c-0.7-1.1-1.7-2-2.6-3l-4.4-4.8c-0.7-0.8-1.8-2.5-2.8-2.8
	c-0.8-0.2-1.9,1.5-2.5,2.1l-5.7,6.2c-0.5,0.5-1.7,1.5-1.6,2.3c0.1,0.9,1.4,1.9,2,2.5l5.4,5.8c0.5,0.5,1.7,2.3,2.5,2.1
	c1-0.3,2.2-2.1,2.9-2.9L60.4,204 M72,214.6c1.3-1,2.4-2.5,3.6-3.7L82,204c-0.8-1.2-1.8-2.2-2.8-3.2l-4.6-4.9
	c-0.6-0.6-1.7-2.4-2.6-2.4c-0.6,0-1.2,0.9-1.6,1.4l-3.8,4.1l-3.1,3.4c-0.4,0.4-1.1,1-1.1,1.6c0,0.4,0.4,0.8,0.6,1.1
	c0.6,0.7,1.2,1.3,1.8,1.9L72,214.6 M83.6,203.9c0.8,1.2,1.8,2.2,2.8,3.2L91,212c0.6,0.6,1.7,2.4,2.6,2.4c0.4,0,0.7-0.4,1-0.7
	c0.6-0.6,1.2-1.3,1.8-1.9l7.2-7.8c-0.7-1.1-1.7-2-2.6-3l-4.7-5.1c-0.6-0.6-1.7-2.4-2.6-2.4c-0.4,0-0.7,0.4-1,0.7
	c-0.6,0.6-1.2,1.3-1.8,1.9L83.6,203.9 M105.2,203.9c0.7,1.1,1.7,2,2.6,3l4.7,5.1c0.6,0.6,1.7,2.4,2.6,2.4c0.4,0,0.7-0.4,1-0.7
	c0.6-0.6,1.2-1.3,1.8-1.9l7.2-7.8c-0.7-1.1-1.7-2-2.6-3l-4.7-5.1c-0.6-0.6-1.7-2.4-2.6-2.4c-0.4,0-0.7,0.4-1,0.7
	c-0.6,0.6-1.2,1.3-1.8,1.9L105.2,203.9 M146.8,204c-0.7-1.1-1.7-2-2.6-3l-4.4-4.8c-0.7-0.8-1.8-2.5-2.8-2.8
	c-0.8-0.2-1.9,1.5-2.5,2.1l-5.7,6.2c-0.5,0.5-1.7,1.5-1.6,2.3c0.1,0.9,1.4,1.9,2,2.5l5.4,5.8c0.5,0.5,1.6,2.3,2.5,2.1
	c1-0.3,2.1-2,2.8-2.8L146.8,204 M158.2,193.5c-0.8,0.2-1.6,1.5-2.1,2.1l-5.2,5.6c-0.5,0.6-2.1,1.7-2.1,2.6c0,0.6,0.7,1.2,1.1,1.6
	l3.3,3.5l3.9,4.2c0.4,0.4,1,1.3,1.6,1.2c0.4-0.1,0.7-0.5,1-0.8c0.6-0.7,1.6-1.4,1.9-2.3c0.4-1.2,0.1-3.1,0.1-4.4v-6.4
	c0-1.1,0.1-2.3,0-3.4c-0.2-1.2-1.5-2.2-2.3-3C159.1,193.8,158.7,193.4,158.2,193.5 M18,204.7l-7,7.6c-0.7,0.8-2.3,1.9-2.6,3
	c-0.2,0.9,1.4,2.1,1.9,2.6l5.4,5.8c0.6,0.6,1.5,2,2.3,2.1c0.8,0.1,1.6-1.3,2.1-1.8l5.7-6.2c0.5-0.5,2.1-1.8,1.9-2.6
	c-0.2-1.1-1.9-2.2-2.6-3l-4.4-4.8C19.9,206.6,19,205.5,18,204.7 M39.6,204.7l-7,7.6c-0.7,0.8-2.3,1.9-2.6,3
	c-0.2,0.8,1.1,1.8,1.6,2.3l5.7,6.2c0.5,0.5,1.6,2.3,2.5,2.1c1-0.3,2.1-2,2.8-2.8l7-7.6c-1.3-2-3.3-3.7-4.9-5.5
	C43.1,208.3,41.5,206.2,39.6,204.7 M61.2,204.7l-7,7.6c-0.7,0.8-2.3,1.9-2.6,3c-0.2,0.8,1.1,1.8,1.6,2.3l5.7,6.2
	c0.5,0.5,1.6,2.3,2.5,2.1c1-0.3,2.1-2,2.8-2.8l7-7.6c-1.3-2-3.3-3.7-4.9-5.5C64.7,208.3,63.1,206.2,61.2,204.7 M82.8,204.7l-7,7.6
	c-0.7,0.8-2.3,1.9-2.6,3c-0.2,0.8,1.1,1.8,1.6,2.3l5.7,6.2c0.5,0.5,1.6,2.3,2.5,2.1c1-0.3,2.1-2,2.8-2.8l7-7.6
	c-1.3-2-3.3-3.7-4.9-5.5C86.3,208.3,84.7,206.2,82.8,204.7 M104.4,204.7l-7,7.6c-0.7,0.8-2.3,1.9-2.6,3c-0.2,0.8,1.1,1.8,1.6,2.3
	l5.7,6.2c0.5,0.5,1.6,2.3,2.5,2.1c1-0.3,2.1-2,2.8-2.8l7-7.6c-1.3-2-3.3-3.7-4.9-5.5C107.9,208.3,106.3,206.2,104.4,204.7
	 M126,204.7l-7,7.6c-0.7,0.8-2.3,1.9-2.6,3c-0.2,0.8,1.1,1.8,1.6,2.3l5.7,6.2c0.5,0.5,1.6,2.3,2.5,2.1c1-0.3,2.1-2,2.8-2.8l7-7.6
	c-1.3-2-3.3-3.7-4.9-5.5C129.5,208.3,127.9,206.2,126,204.7 M147.4,205.1c-0.9,0.3-1.7,1.6-2.3,2.3l-5.1,5.5
	c-0.5,0.6-2.1,1.7-2.1,2.6c0,0.8,1.3,1.8,1.8,2.3l5.7,6.2c0.5,0.6,1.6,2.2,2.5,1.9c0.9-0.3,1.7-1.6,2.3-2.3l5.1-5.5
	c0.5-0.6,2.1-1.7,2.1-2.6c0-0.8-1.3-1.8-1.8-2.3l-5.7-6.2C149.4,206.5,148.3,204.8,147.4,205.1 M161.5,213.4
	c-0.5,0.6-1.6,1.3-1.7,2.1c-0.2,0.9,1.3,2,1.9,2.5C161.7,216.6,162,214.6,161.5,213.4 M5.1,214.1v2.6c0.5-0.4,0.9-0.8,1.3-1.2
	C6,214.9,5.6,214.5,5.1,214.1 M17.2,227.1c-1.2-1.8-2.8-3.2-4.3-4.8L9,218.1c-0.4-0.5-1-1.4-1.6-1.5c-0.5-0.1-0.8,0.3-1.1,0.6
	c-0.8,0.8-1.1,1.4-1.1,2.6c0,4.2,0,8.5,0,12.7c0,1.6-0.2,3.7,1.6,4.2c1.5,0.4,2.5-1,3.4-2.1L17.2,227.1 M38.8,227.1
	c-0.7-1.1-1.7-2-2.6-3l-4.7-5.1c-0.6-0.6-1.7-2.4-2.6-2.4c-0.6,0-1.2,0.9-1.6,1.4l-3.8,4.1l-3.1,3.4c-0.4,0.4-1.1,1-1.1,1.6
	c0,0.6,0.6,1.1,0.9,1.4l2.9,3.2l3.4,3.7c0.5,0.6,1.1,1.3,1.8,1.5c1.5,0.4,2.5-1,3.4-2.1L38.8,227.1 M60.4,227.1
	c-0.7-1.1-1.7-2-2.6-3L53,219c-0.6-0.6-1.7-2.4-2.6-2.4c-0.6,0-1.2,0.9-1.6,1.4L45,222l-3.1,3.4c-0.4,0.4-1.1,1-1.1,1.6
	c0,0.6,0.6,1.1,0.9,1.4l2.9,3.2l3.4,3.7c0.5,0.6,1.1,1.3,1.8,1.5c1.5,0.4,2.5-1,3.4-2.1L60.4,227.1 M82,227.1
	c-0.8-1.2-1.8-2.2-2.8-3.2l-4.6-4.9c-0.6-0.6-1.7-2.4-2.6-2.4c-0.6,0-1.2,0.9-1.6,1.4l-3.8,4.1l-3.1,3.4c-0.4,0.4-1.1,1-1.1,1.6
	c0,0.6,0.6,1.1,0.9,1.4l2.9,3.2l3.4,3.7c0.5,0.6,1.1,1.3,1.8,1.5c1.5,0.4,2.5-1,3.4-2.1L82,227.1 M83.6,226.8c0.5,1.2,1.6,2.1,2.5,3
	l5.1,5.5c0.9,1,1.9,2,3.3,1.5c1.1-0.4,2.1-2,2.9-2.9l6.2-6.7c-0.7-1.1-1.7-2-2.6-3l-4.7-5.1c-0.6-0.6-1.9-2.6-2.8-2.4
	c-1,0.3-2.1,2-2.8,2.8C88.4,221.8,86.2,224.8,83.6,226.8 M125.2,227.1c-0.7-1.1-1.7-2-2.6-3l-4.7-5.1c-0.6-0.6-1.7-2.4-2.6-2.4
	c-0.6,0-1.2,0.9-1.6,1.4l-3.8,4.1l-3.1,3.4c-0.4,0.4-1.1,1-1.1,1.6c0,0.6,0.6,1.1,0.9,1.4l2.9,3.2l3.4,3.7c0.5,0.6,1.1,1.3,1.8,1.5
	c1.5,0.4,2.5-1,3.4-2.1L125.2,227.1 M146.8,227.1C146,226,145,225,144,224l-4.6-4.9c-0.6-0.6-1.7-2.4-2.6-2.4
	c-0.6,0-1.2,0.9-1.6,1.4l-3.8,4.1l-3.1,3.4c-0.4,0.4-1.1,1-1.1,1.6c0,0.6,0.6,1.1,0.9,1.4l2.9,3.2l3.4,3.7c0.5,0.6,1.1,1.3,1.8,1.5
	c1.5,0.4,2.5-1,3.4-2.1L146.8,227.1 M158.2,216.6c-0.8,0.2-1.6,1.5-2.1,2.1l-5.2,5.6c-0.5,0.6-2.1,1.7-2.1,2.6
	c0,0.9,1.5,2.1,2.1,2.6l5.1,5.5c0.9,1,1.8,2.1,3.3,1.7c0.9-0.2,2.1-1.6,2.4-2.6c0.4-1.4,0.1-3.3,0.1-4.8v-6.4c0-0.9,0.2-2.1-0.1-3
	c-0.3-1.1-1.5-2.1-2.2-2.8C159.1,217,158.7,216.5,158.2,216.6 M18,227.8l-5.2,5.6c-1,1.1-2.1,2.1-2.9,3.4h16.5
	c-0.7-1.3-2-2.3-2.9-3.4C21.7,231.6,20,229.4,18,227.8 M39.6,227.8l-5.4,5.8c-0.9,1-2.1,2-2.8,3.2h16.5c-1.1-1.7-2.7-3.1-4.1-4.6
	C42.5,230.8,41.2,229,39.6,227.8 M61.2,227.8l-5.2,5.6c-1,1.1-2.1,2.1-2.9,3.4h16.5c-0.7-1.3-2-2.3-2.9-3.4
	C64.9,231.6,63.2,229.4,61.2,227.8 M82.8,227.8l-5.4,5.8c-0.9,1-2.1,2-2.8,3.2h16.5c-1.1-1.7-2.7-3.1-4.1-4.6
	C85.7,230.8,84.4,229,82.8,227.8 M104.4,227.8l-5.4,5.8c-0.9,1-2.1,2-2.8,3.2h16.5c-1.1-1.7-2.7-3.1-4.1-4.6
	C107.3,230.8,106,229,104.4,227.8 M126,227.8l-5.4,5.8c-0.9,1-2.1,2-2.8,3.2h16.5c-1.1-1.7-2.7-3.1-4.1-4.6
	C128.9,230.8,127.6,229,126,227.8 M139.6,236.8H156c-0.5-1.1-1.4-1.8-2.1-2.6l-3.9-4.2c-0.5-0.5-1.4-1.9-2.1-1.9
	c-0.8,0-1.6,1.4-2.1,1.9l-3.9,4.2C141,235,140,235.8,139.6,236.8 M161.4,236.5v0.4h0.3v-0.4H161.4z"/>
</svg>
