<?xml version="1.0" encoding="UTF-8" standalone="no"?>
<svg
   xmlns:dc="http://purl.org/dc/elements/1.1/"
   xmlns:cc="http://creativecommons.org/ns#"
   xmlns:rdf="http://www.w3.org/1999/02/22-rdf-syntax-ns#"
   xmlns:svg="http://www.w3.org/2000/svg"
   xmlns="http://www.w3.org/2000/svg"
   id="svg8"
   version="1.1"
   viewBox="0 0 58.941521 85.581047"
   height="85.581047mm"
   width="58.941521mm">
  <defs
     id="defs2" />
  <metadata
     id="metadata5">
    <rdf:RDF>
      <cc:Work
         rdf:about="">
        <dc:format>image/svg+xml</dc:format>
        <dc:type
           rdf:resource="http://purl.org/dc/dcmitype/StillImage" />
        <dc:title></dc:title>
      </cc:Work>
    </rdf:RDF>
  </metadata>
  <g
     transform="translate(-69.747569,-46.729765)"
     id="layer1">
    <g
       transform="matrix(0.26582149,0,0,0.26560909,69.76509,46.668516)"
       id="surface1">
      <path
         style="fill:#ffffff;fill-opacity:1;fill-rule:nonzero;stroke:#000000;stroke-width:0.5;stroke-linecap:butt;stroke-linejoin:miter;stroke-miterlimit:4;stroke-opacity:1"
         d="m 166.80016,235.49967 c 0,3.8015 -3.09871,6.89978 -6.9014,6.89978 H 7.101702 c -3.802695,0 -6.901405,-3.09828 -6.901405,-6.89978 V 7.097781 c 0,-3.798557 3.09871,-6.896839 6.901405,-6.896839 H 159.99891 c 3.80269,0 6.9014,3.098282 6.9014,6.896839 V 235.49967 Z m 0,0"
         transform="matrix(1.326157,0,0,1.327601,0,0.295729)"
         id="path10" />
      <path
         style="fill:#eb3335;fill-opacity:1;fill-rule:nonzero;stroke:none"
         d="M 6.765625,9.585938 V 12.375 c 1.191406,-0.929688 2.121094,-2.65625 0,-2.789062 m 17.105469,15.136718 c 2.121094,-1.59375 3.84375,-3.847656 5.699218,-5.839844 l 5.707032,-6.109374 C 35.675781,12.242188 37.132812,11.179688 36.867188,10.25 36.46875,9.058594 33.421875,9.585938 32.492188,9.585938 H 19.097656 c -1.992187,0 -4.113281,0 -6.101562,0 -0.53125,0 -1.722656,0 -1.855469,0.796874 -0.132813,0.53125 0.265625,1.0625 0.53125,1.328126 0.792969,0.929687 1.589844,1.730468 2.386719,2.527343 l 9.8125,10.484375 m 28.644531,0 c 2.121094,-1.59375 3.847656,-3.847656 5.703125,-5.839844 l 5.703125,-6.109374 C 64.449219,12.242188 65.777344,11.179688 65.644531,10.25 65.113281,9.058594 62.0625,9.585938 61.136719,9.585938 H 47.742188 c -1.988282,0 -4.109376,0 -6.101563,0 -0.53125,0 -1.722656,0 -1.855469,0.796874 -0.132812,0.53125 0.265625,1.0625 0.527344,1.328126 0.796875,0.929687 1.59375,1.730468 2.386719,2.527343 l 9.816406,10.484375 m 28.648437,0 c 2.121094,-1.59375 3.84375,-3.847656 5.699219,-5.839844 l 5.703125,-6.109374 C 92.964844,12.242188 94.421875,11.179688 94.160156,10.25 93.761719,9.058594 90.707031,9.585938 89.78125,9.585938 H 76.386719 c -1.988281,0 -4.109375,0 -6.097657,0 -0.53125,0 -1.726562,0 -1.859374,0.796874 -0.132813,0.53125 0.265624,1.0625 0.53125,1.328126 0.796874,0.929687 1.589843,1.730468 2.386718,2.527343 l 9.816406,10.484375 m 28.640628,0 c 2.12109,-1.59375 3.84765,-3.847656 5.70312,-5.839844 l 5.70313,-6.109374 c 0.53125,-0.53125 1.85547,-1.59375 1.72265,-2.523438 -0.52734,-1.191406 -3.57812,-0.664062 -4.375,-0.664062 h -13.52343 c -1.9961,0 -4.11719,0 -6.105472,0 -0.527344,0 -1.722657,0 -1.855469,0.796874 -0.132813,0.53125 0.265625,1.0625 0.53125,1.328126 0.796875,0.929687 1.589843,1.730468 2.386719,2.527343 l 9.812502,10.484375 m 28.64453,0 c 2.12109,-1.59375 3.84765,-3.847656 5.70703,-5.839844 l 5.69922,-6.109374 c 0.53125,-0.53125 1.85547,-1.59375 1.72265,-2.523438 C 151.04687,9.058594 148,9.585938 147.20312,9.585938 h -13.39453 c -1.98828,0 -4.10937,0 -6.10156,0 -0.53125,0 -1.72265,0 -1.85547,0.796874 -0.13281,0.53125 0.26563,1.0625 0.53125,1.328126 0.79297,0.929687 1.58985,1.730468 2.38672,2.527343 l 9.67969,10.484375 m 28.64844,0 c 2.12109,-1.59375 3.84375,-3.847656 5.69921,-5.839844 L 178.5,12.773438 c 0.53125,-0.53125 1.85937,-1.59375 1.72656,-2.523438 -0.39844,-1.191406 -3.32031,-0.792969 -4.24609,-0.792969 h -13.39453 c -1.98828,0 -4.10938,0 -6.09766,0 -0.53125,0 -1.72266,0 -1.85547,0.792969 -0.13281,0.53125 0.26563,1.0625 0.52735,1.328125 0.79687,0.929687 1.59375,1.730469 2.38671,2.527344 l 9.55079,10.617187 M 209.26562,10.25 c -1.85546,-1.191406 -4.375,-0.664062 -6.5,-0.664062 h -13.65625 c -1.58984,0 -3.18359,-0.128907 -4.77343,0 -0.53125,0 -1.19141,0.265624 -1.19141,0.929687 0,0.796875 1.05859,1.59375 1.45703,2.125 l 4.375,4.648437 5.04297,5.441407 c 0.52734,0.53125 1.32422,1.859375 2.12109,1.859375 1.19141,0 2.64844,-2.390625 3.44532,-3.183594 l 6.5,-7.035156 c 1.05859,-1.332032 2.38672,-2.527344 3.17968,-4.121094 m 2.1211,0.53125 c 0.79687,1.195312 1.85937,2.390625 3.05078,3.324219 V 9.585938 c -1.32422,0 -2.12109,0.132812 -3.05078,1.195312 M 9.550781,11.710938 c -0.929687,0.929687 -2.253906,1.996093 -2.652343,3.324218 -0.53125,1.457032 -0.132813,3.847656 -0.132813,5.441406 v 12.214844 c 0,2.386719 -0.398437,4.246094 1.324219,6.105469 0.398437,0.398437 0.929687,1.0625 1.460937,1.195313 1.058594,-0.132813 2.121094,-1.859376 2.78125,-2.523438 l 7.5625,-8.234375 c 0.664063,-0.664063 2.785157,-2.386719 2.519531,-3.449219 -0.265624,-1.460937 -2.519531,-2.921875 -3.449218,-3.980468 L 13.261719,15.433594 C 12.066406,14.105469 10.875,12.640625 9.550781,11.710938 m 28.640625,0 -9.28125,10.09375 c -0.929687,1.058593 -3.050781,2.519531 -3.449218,3.980468 -0.265626,1.195313 1.855468,2.785156 2.519531,3.449219 l 7.164062,7.703125 c 0.792969,0.796875 1.988281,2.65625 3.046875,2.789062 C 39.253906,39.859375 40.3125,38 40.976562,37.335938 l 7.5625,-8.234376 c 0.660157,-0.664062 2.78125,-2.386718 2.515626,-3.449218 -0.261719,-1.460938 -2.515626,-2.921875 -3.445313,-3.980469 l -5.835937,-6.371094 c -1.0625,-1.195312 -2.253907,-2.660156 -3.582032,-3.589843 m 28.378906,0 c -2.386718,3.722656 -6.097656,6.90625 -9.144531,10.09375 -0.929687,1.058593 -3.054687,2.519531 -3.453125,3.980468 -0.265625,1.195313 1.859375,2.785156 2.523438,3.449219 l 7.425781,7.96875 c 0.660156,0.664063 1.855469,2.523437 2.78125,2.523437 0.796875,0 1.464844,-1.0625 1.992187,-1.59375 l 4.109376,-4.511718 5.039062,-5.445313 c 0.53125,-0.664062 1.589844,-1.460937 1.722656,-2.390625 0.132813,-1.328125 -2.121094,-2.921875 -2.78125,-3.714844 l -6.496094,-6.902343 c -1.0625,-1.195313 -2.253906,-2.792969 -3.71875,-3.457031 m 28.914063,0 -9.285156,10.09375 c -0.925781,1.058593 -3.046875,2.519531 -3.445313,3.980468 -0.265625,1.195313 1.855469,2.785156 2.519532,3.449219 l 7.425781,7.96875 c 0.664062,0.664063 1.855469,2.523437 2.785156,2.523437 0.796875,0 1.457031,-1.0625 1.988281,-1.59375 l 4.109374,-4.511718 5.04297,-5.445313 c 0.53125,-0.664062 1.58984,-1.460937 1.72266,-2.390625 0.13281,-1.328125 -2.1211,-2.921875 -2.78516,-3.714844 l -6.101562,-6.503906 c -1.324219,-1.328125 -2.519532,-2.792968 -3.976563,-3.855468 m 57.023435,0 c -2.38672,3.722656 -6.10156,6.90625 -9.14844,10.09375 -0.92968,1.058593 -3.05468,2.519531 -3.45312,3.980468 -0.26172,1.195313 1.86328,2.785156 2.52344,3.449219 l 7.42578,7.96875 c 0.66406,0.664063 1.85547,2.523437 2.78515,2.523437 0.79297,0 1.46094,-1.0625 1.99219,-1.59375 l 4.10938,-4.511718 5.03515,-5.445313 c 0.53125,-0.664062 1.59375,-1.460937 1.72657,-2.390625 0.13281,-1.328125 -2.1211,-2.921875 -2.78516,-3.714844 l -6.49609,-7.035156 c -1.0625,-1.0625 -2.25391,-2.660156 -3.71485,-3.324218 m 28.64453,0 c -2.38281,3.722656 -6.10156,6.90625 -9.14843,10.09375 -0.92969,1.058593 -3.05079,2.519531 -3.44922,3.980468 -0.26563,1.195313 1.85547,2.785156 2.51953,3.449219 l 7.42578,7.96875 c 0.66406,0.664063 1.85937,2.523437 2.78516,2.523437 0.79687,0 1.46093,-1.0625 1.98828,-1.59375 l 4.11328,-4.511718 5.03906,-5.445313 c 0.53125,-0.664062 1.59375,-1.460937 1.72266,-2.390625 0.13281,-1.328125 -2.1211,-2.921875 -2.78125,-3.714844 l -6.5,-7.035156 c -1.0625,-1.0625 -2.25391,-2.660156 -3.71485,-3.324218 m -57.28906,0.53125 c -1.0625,0.265624 -2.12109,1.996093 -2.78515,2.792968 l -6.89844,7.429688 c -0.66016,0.796875 -2.78125,2.257812 -2.78125,3.453125 0,0.796875 0.92578,1.59375 1.45703,2.125 l 4.37891,4.648437 5.03906,5.441406 c 0.52734,0.53125 1.32422,1.726563 2.12109,1.59375 1.0586,-0.265624 2.1211,-1.992187 2.78125,-2.789062 L 134.07422,29.5 c 0.66406,-0.796875 2.78515,-2.253906 2.78515,-3.449219 0,-0.796875 -0.92968,-1.59375 -1.45703,-2.125 l -4.375,-4.644531 -5.04296,-5.441406 c -0.39844,-0.667969 -1.19532,-1.863282 -2.1211,-1.597656 m 73.20313,13.410156 c 1.58984,2.390625 3.97656,4.511718 5.83203,6.507812 l 5.04297,5.441406 c 0.53125,0.664063 1.32421,1.859376 2.12109,1.992188 0.66406,0.132812 1.0625,-0.398438 1.45703,-0.796875 0.92969,-0.929687 2.51953,-2.257813 2.78516,-3.71875 0.13281,-1.324219 0,-2.652344 0,-3.980469 v -7.703125 c 0,-2.121093 0.39843,-4.777343 -0.13282,-6.769531 -0.26562,-1.324219 -1.85546,-2.519531 -2.78515,-3.453125 -0.39453,-0.398437 -0.79297,-0.929687 -1.32422,-0.929687 -1.19141,-0.132813 -2.91797,2.527343 -3.71094,3.324218 l -9.28515,10.085938 M 23.871094,55.523438 c 1.324218,-1.0625 2.519531,-2.519532 3.710937,-3.714844 l 5.839844,-6.375 c 0.925781,-1.0625 3.046875,-2.523438 3.445313,-3.984375 C 37.132812,40.257812 35.011719,38.664062 34.347656,38 L 26.789062,29.765625 C 26.125,29.101562 24.929688,27.246094 24.003906,27.378906 22.941406,27.511719 21.75,29.367188 20.953125,30.164062 l -7.160156,7.703126 c -0.664063,0.664062 -2.785157,2.390624 -2.519531,3.449218 0.265624,1.460938 2.519531,2.921875 3.445312,3.984375 l 9.152344,10.222657 m 28.378906,0 c 1.457031,-0.796876 2.519531,-2.253907 3.714844,-3.449219 l 6.496094,-7.039063 c 0.796874,-0.796875 3.050781,-2.523437 3.050781,-3.71875 0,-0.925781 -1.195313,-1.722656 -1.722657,-2.386718 l -5.171874,-5.574219 -3.847657,-4.253907 c -0.53125,-0.53125 -1.195312,-1.589843 -1.988281,-1.589843 -1.0625,-0.132813 -2.121094,1.722656 -2.785156,2.386719 l -7.5625,8.234374 c -0.660156,0.664063 -2.78125,2.390626 -2.515625,3.449219 0.261719,1.460938 2.515625,2.921875 3.449219,3.984375 2.785156,3.054688 6.496093,6.242188 8.882812,9.957032 m 28.648438,0 c 1.457031,-0.796876 2.519531,-2.253907 3.710937,-3.449219 l 6.496094,-7.039063 c 0.796875,-0.796875 3.054687,-2.523437 3.054687,-3.71875 0,-0.925781 -1.195312,-1.722656 -1.726562,-2.386718 l -5.171875,-5.574219 -3.84375,-4.253907 c -0.53125,-0.53125 -1.195313,-1.589843 -1.992188,-1.589843 -1.058593,-0.132813 -2.125,1.722656 -2.785156,2.386719 l -7.558594,8.234374 c -0.660156,0.664063 -2.785156,2.390626 -2.519531,3.449219 0.265625,1.460938 2.519531,2.921875 3.449219,3.984375 2.785156,3.054688 6.496093,6.242188 8.886719,9.957032 M 109.53906,27.378906 c -1.1914,0.398438 -2.25,2.121094 -3.04687,3.050782 l -6.89844,7.4375 c -0.664062,0.796874 -2.785156,2.257812 -2.652344,3.449218 0.132813,1.195313 1.855469,2.523438 2.652344,3.320313 l 7.16406,7.703125 c 0.66016,0.796875 2.1211,2.917968 3.3125,2.519531 1.19532,-0.398437 2.25391,-2.121094 3.05078,-3.050781 l 6.89844,-7.4375 c 0.66016,-0.796875 2.78125,-2.257813 2.64844,-3.449219 -0.13281,-1.195313 -1.85547,-2.523437 -2.64844,-3.320313 l -7.16406,-7.703124 c -0.66406,-0.664063 -2.12109,-2.917969 -3.31641,-2.519532 m 42.17188,14.070313 c -0.66407,-1.589844 -2.1211,-2.785157 -3.3125,-3.980469 l -6.4961,-7.039062 c -0.80078,-0.796876 -2.25781,-3.183594 -3.45312,-3.050782 -0.79297,0.132813 -1.58985,1.324219 -2.1211,1.855469 l -5.30078,5.578125 -3.85156,4.25 c -0.52734,0.53125 -1.45703,1.328125 -1.58984,2.121094 -0.13281,1.0625 1.58984,2.390625 2.12109,3.054687 l 7.5625,8.234375 c 0.66016,0.796875 2.12109,2.917969 3.3125,2.519532 1.32422,-0.53125 2.65234,-2.652344 3.71484,-3.714844 3.05079,-3.191406 5.96875,-7.304688 9.41407,-9.828125 m 15.12109,14.074219 c 1.45703,-0.796876 2.51953,-2.253907 3.71094,-3.449219 l 6.49609,-7.039063 c 0.79688,-0.796875 3.05469,-2.523437 3.05469,-3.71875 0,-0.925781 -1.19531,-1.722656 -1.72656,-2.386718 l -5.17188,-5.574219 -3.84375,-4.253907 c -0.53125,-0.53125 -1.19531,-1.589843 -1.98828,-1.589843 -1.0625,-0.132813 -2.39062,1.855469 -3.05469,2.652343 l -7.55468,8.234376 c -0.66407,0.796874 -2.78516,2.257812 -2.25391,3.449218 0.52734,1.460938 2.38672,2.921875 3.44531,3.984375 2.78516,3.054688 6.4961,5.976563 8.88672,9.691407 m 15.91406,-14.339844 c 1.19141,1.859375 3.04688,3.453125 4.50782,5.179687 l 8.48828,9.160157 c 1.32422,-1.0625 2.51953,-2.519532 3.71093,-3.714844 l 6.23438,-6.773438 c 0.79687,-0.796875 3.05078,-2.523437 3.05078,-3.71875 0,-0.925781 -1.19531,-1.722656 -1.72266,-2.386718 l -5.04296,-5.441407 -4.10938,-4.519531 c -0.53125,-0.53125 -1.19531,-1.589844 -1.98828,-1.589844 -0.53125,0 -0.92969,0.53125 -1.32813,0.929688 -0.79296,0.792968 -1.58984,1.722656 -2.38671,2.523437 l -9.41407,10.351563 m 31.42578,-2.785156 c -0.66015,0.796874 -2.12109,1.726562 -2.2539,2.785156 -0.26563,1.195312 1.72265,2.65625 2.51953,3.320312 0,-1.859375 0.39844,-4.511718 -0.26563,-6.105468 M 6.765625,39.328125 v 3.714844 c 1.722656,-1.328125 1.722656,-2.386719 0,-3.714844 M 9.550781,70.660156 C 11.273438,69.332031 12.730469,67.339844 14.320312,65.75 l 8.488282,-9.164062 C 21.75,54.992188 20.425781,53.664062 19.097656,52.339844 l -6.234375,-6.773438 c -0.664062,-0.796875 -2.386719,-3.320312 -3.445312,-2.921875 -0.53125,0.132813 -0.929688,0.664063 -1.328125,1.0625 -1.722656,1.859375 -1.324219,3.980469 -1.324219,6.375 v 11.945313 c 0,1.59375 -0.398437,3.855468 0.132813,5.445312 0.398437,1.195313 1.722656,2.257813 2.652343,3.1875 m 28.640625,0 C 39.917969,69.332031 41.375,67.339844 42.964844,65.75 l 8.488281,-9.164062 C 50.527344,55.125 49.199219,53.929688 48.007812,52.605469 l -6.234374,-6.773438 c -0.796876,-0.796875 -2.253907,-3.1875 -3.449219,-3.1875 -0.792969,0 -1.589844,1.195313 -2.121094,1.859375 l -5.035156,5.445313 -4.113281,4.511719 c -0.53125,0.53125 -1.460938,1.328124 -1.460938,2.125 0,0.53125 0.53125,1.0625 0.796875,1.460937 0.792969,0.929687 1.589844,1.726563 2.386719,2.519531 l 9.414062,10.09375 M 80.101562,56.585938 C 79.167969,55.125 77.84375,53.929688 76.652344,52.605469 l -5.835938,-6.375 c -0.925781,-1.0625 -2.386718,-3.320313 -3.714844,-3.71875 -1.058593,-0.265625 -2.519531,1.992187 -3.3125,2.789062 l -7.558593,8.234375 c -0.664063,0.660156 -2.257813,1.988282 -2.125,3.050782 0.132812,1.195312 1.859375,2.523437 2.65625,3.320312 l 7.160156,7.699219 c 0.660156,0.664062 2.121094,3.054687 3.3125,2.789062 1.328125,-0.398437 2.789063,-2.65625 3.714844,-3.71875 l 9.152343,-10.089843 m 28.644528,0 c -0.92968,-1.460938 -2.2539,-2.65625 -3.44921,-3.980469 l -5.835942,-6.375 c -0.925782,-1.0625 -2.386719,-3.320313 -3.710938,-3.71875 -1.0625,-0.265625 -2.519531,1.992187 -3.316406,2.789062 L 84.875,53.535156 c -0.664062,0.660156 -2.253906,1.988282 -2.121094,3.050782 0.132813,1.195312 1.855469,2.523437 2.652344,3.320312 l 7.160156,7.699219 c 0.664063,0.664062 2.121094,3.054687 3.316406,2.789062 1.324219,-0.398437 2.78125,-2.65625 3.710938,-3.71875 l 9.15234,-10.089843 m 2.1211,-0.132813 c 1.05859,1.59375 2.38672,2.921875 3.71094,4.246094 l 6.10156,6.507812 c 0.79687,0.796875 2.2539,3.1875 3.44922,3.1875 0.52734,0 0.92578,-0.53125 1.32422,-0.929687 0.79687,-0.796875 1.58984,-1.726563 2.38671,-2.523438 l 9.55078,-10.355468 c -0.92968,-1.460938 -2.2539,-2.65625 -3.44921,-3.980469 l -6.23438,-6.773438 c -0.79687,-0.796875 -2.2539,-3.1875 -3.44531,-3.1875 -0.53125,0 -0.92969,0.53125 -1.32813,0.929688 -0.79296,0.796875 -1.58984,1.726562 -2.38671,2.523437 l -9.67969,10.355469 m 28.64453,0 c 0.92578,1.460937 2.25781,2.65625 3.44922,3.980469 l 6.23047,6.773437 c 0.79687,0.796875 2.2539,3.1875 3.44921,3.1875 0.52735,0 0.92579,-0.53125 1.32813,-0.929687 0.79687,-0.796875 1.58984,-1.726563 2.38672,-2.523438 l 9.54297,-10.355468 c -0.92578,-1.460938 -2.25,-2.65625 -3.44532,-3.980469 l -6.23046,-6.773438 c -0.79688,-0.796875 -2.25391,-3.1875 -3.44922,-3.1875 -0.53125,0 -0.92969,0.53125 -1.32813,0.929688 -0.79297,0.796875 -1.58984,1.726562 -2.38672,2.523437 l -9.54687,10.355469 m 28.64453,0 c 0.92969,1.460937 2.25391,2.65625 3.44922,3.980469 l 6.23047,6.773437 c 0.80078,0.796875 2.25781,3.1875 3.44922,3.1875 0.53125,0 0.92968,-0.53125 1.32812,-0.929687 0.79297,-0.796875 1.58984,-1.726563 2.38672,-2.523438 l 9.54687,-10.355468 c -1.05859,-1.59375 -2.38671,-2.921876 -3.71093,-4.246094 l -6.10157,-6.507813 c -0.79687,-0.796875 -2.2539,-3.1875 -3.44921,-3.1875 -0.52735,0 -0.92579,0.53125 -1.32422,0.929688 -0.79688,0.796875 -1.59375,1.726562 -2.39063,2.523437 l -9.41406,10.355469 m 41.64062,-13.808594 c -1.05859,0.265625 -2.12109,1.992188 -2.78125,2.789063 l -6.89843,7.4375 c -0.66407,0.792968 -2.78516,2.253906 -2.78516,3.449218 0,0.796876 0.92969,1.59375 1.45703,2.125 l 4.37891,4.644532 5.17187,5.578125 c 0.53125,0.53125 1.32422,1.726562 2.1211,1.59375 0.53125,-0.132813 0.92578,-0.664063 1.32422,-1.0625 0.79687,-0.929688 2.12109,-1.859375 2.51953,-3.050781 0.53125,-1.597657 0.13281,-4.121094 0.13281,-5.847657 v -8.492187 c 0,-1.460938 0.13281,-3.054688 0,-4.515625 -0.26563,-1.59375 -1.98828,-2.921875 -3.05078,-3.984375 -0.39453,-0.132813 -0.92578,-0.796875 -1.58985,-0.664063 M 23.871094,57.515625 14.320312,67.871094 c -0.792968,0.796875 -1.589843,1.726562 -2.386718,2.523437 -0.261719,0.398438 -0.792969,0.796875 -0.792969,1.460938 0,0.53125 0.53125,1.058593 0.792969,1.457031 0.796875,0.929688 1.59375,1.726562 2.386718,2.523438 l 9.550782,10.355468 c 1.324218,-1.058594 2.519531,-2.519531 3.710937,-3.71875 l 6.234375,-6.769531 c 0.796875,-0.796875 3.050782,-2.523437 3.050782,-3.714844 0,-1.195312 -2.253907,-2.921875 -3.050782,-3.71875 l -6.234375,-6.90625 c -1.191406,-1.328125 -2.386719,-2.785156 -3.710937,-3.847656 m 28.644531,0 -9.550781,10.355469 c -0.792969,0.796875 -1.589844,1.726562 -2.386719,2.523437 -0.265625,0.398438 -0.792969,0.796875 -0.792969,1.460938 0,0.53125 0.527344,1.058593 0.792969,1.457031 0.796875,0.929688 1.59375,1.726562 2.386719,2.523438 l 9.550781,10.355468 c 1.324219,-1.058594 2.519531,-2.519531 3.714844,-3.71875 l 6.230469,-6.769531 c 0.796874,-0.796875 3.050781,-2.523437 3.050781,-3.714844 0,-1.195312 -2.253907,-2.921875 -3.050781,-3.71875 l -6.230469,-6.90625 c -1.195313,-1.328125 -2.390625,-2.785156 -3.714844,-3.847656 m 28.648437,0 -9.550781,10.355469 c -0.796875,0.796875 -1.589843,1.726562 -2.386719,2.523437 -0.265624,0.398438 -0.796874,0.796875 -0.796874,1.460938 0,0.53125 0.53125,1.058593 0.796874,1.457031 0.796876,0.929688 1.589844,1.726562 2.386719,2.523438 l 9.550781,10.355468 c 1.324219,-1.058594 2.515626,-2.519531 3.710938,-3.71875 l 6.230469,-6.769531 c 0.796875,-0.796875 3.054687,-2.523437 3.054687,-3.714844 0,-1.195312 -2.257812,-2.921875 -3.054687,-3.71875 L 84.875,61.363281 c -1.195312,-1.328125 -2.386719,-2.785156 -3.710938,-3.847656 m 28.640628,0 -9.812502,10.488281 c -0.796876,0.796875 -3.183594,2.65625 -3.050782,3.984375 0.132813,0.660157 0.664063,1.191407 1.0625,1.589844 0.792969,0.929687 1.722656,1.726563 2.652344,2.65625 1.85547,1.726563 3.44531,3.714844 5.17188,5.574219 1.19531,1.332031 2.65234,2.660156 3.71093,4.25 1.46094,-0.796875 2.51953,-2.253906 3.71485,-3.453125 l 6.5,-7.035157 c 0.79297,-0.796874 3.04687,-2.523437 3.04687,-3.714843 0,-1.195313 -2.2539,-2.921875 -3.04687,-3.71875 l -6.10157,-6.507813 c -1.19531,-1.460937 -2.38671,-2.917968 -3.84765,-4.113281 m 28.64453,0 -9.54688,10.355469 c -0.79687,0.796875 -1.59375,1.726562 -2.38671,2.523437 -0.26563,0.398438 -0.79688,0.796875 -0.79688,1.460938 0,0.53125 0.53125,1.058593 0.79688,1.457031 0.79296,0.929688 1.58984,1.726562 2.38671,2.523438 l 5.83594,6.371093 c 1.19141,1.332031 2.51953,2.527344 3.44531,3.984375 1.46094,-0.796875 2.51953,-2.253906 3.71875,-3.453125 l 6.4961,-7.035156 c 0.79297,-0.796875 3.04687,-2.523437 3.04687,-3.714844 0,-1.195312 -2.2539,-2.921875 -3.04687,-3.71875 l -6.10157,-6.507812 c -1.19531,-1.59375 -2.39062,-3.050781 -3.84765,-4.246094 m 28.64844,0 -9.55079,10.355469 c -0.79296,0.796875 -1.58984,1.726562 -2.38671,2.523437 -0.26172,0.398438 -0.79297,0.796875 -0.79297,1.460938 0,0.53125 0.53125,1.058593 0.79297,1.457031 0.79687,0.929688 1.59375,1.726562 2.38671,2.523438 l 5.83594,6.371093 c 1.19141,1.332031 2.51563,2.527344 3.44922,3.984375 1.45703,-0.796875 2.51953,-2.253906 3.71094,-3.453125 l 6.49609,-7.035156 c 0.79688,-0.796875 3.05469,-2.523437 3.05469,-3.714844 0,-1.195312 -2.25781,-2.921875 -3.05469,-3.71875 l -6.09765,-6.507812 c -1.19141,-1.59375 -2.38672,-3.050781 -3.84375,-4.246094 m 28.64453,28.675781 c 1.32422,-1.058594 2.51953,-2.519531 3.71093,-3.71875 l 5.83594,-6.371094 c 0.92969,-1.0625 3.05078,-2.523437 3.44922,-3.980468 0.26563,-1.195313 -1.85547,-2.789063 -2.51953,-3.453125 l -7.5625,-8.234375 c -0.66016,-0.660156 -1.85547,-2.519532 -2.78125,-2.386719 -1.0625,0.132813 -2.25391,1.988281 -3.05078,2.785156 l -7.16406,7.703125 c -0.66016,0.664063 -2.78125,2.390625 -2.51563,3.453125 0.26172,1.457031 2.51563,2.917969 3.44531,3.980469 l 9.15235,10.222656 m 18.42968,-17.125 c -0.66015,0.796875 -2.12109,1.726563 -2.2539,2.789063 -0.26563,1.191406 1.72265,2.652343 2.51953,3.316406 0,-1.859375 0.39844,-4.511719 -0.26563,-6.105469 M 6.765625,69.996094 v 3.714844 c 1.722656,-1.324219 1.722656,-2.386719 0,-3.714844 M 9.285156,73.3125 c -0.398437,0.132812 -0.796875,0.53125 -1.0625,0.796875 -1.457031,1.460937 -1.457031,2.65625 -1.457031,4.648437 v 17.125 c 0,1.859376 0.265625,2.785157 1.457031,4.246098 0.398438,0.53515 0.929688,1.0664 1.589844,1.0664 1.0625,-0.13281 2.253906,-1.996091 3.050781,-2.792966 l 7.164063,-7.695313 c 0.660156,-0.796875 2.519531,-2.125 2.519531,-3.320312 0,-0.929688 -1.195313,-1.726563 -1.726563,-2.386719 L 16.046875,79.816406 11.273438,74.640625 C 10.742188,74.109375 10.078125,73.179688 9.285156,73.3125 m 28.644532,0 c -1.0625,0.265625 -2.253907,2.125 -3.050782,2.921875 l -6.898437,7.4375 c -0.664063,0.796875 -2.785157,2.253906 -2.652344,3.449219 0.132813,1.195312 1.855469,2.523437 2.652344,3.320312 l 7.164062,7.695313 c 0.660157,0.796875 2.253907,3.191411 3.445313,2.792971 1.195312,-0.39844 2.253906,-2.128909 3.050781,-2.925784 l 6.765625,-7.296875 c 0.660156,-0.796875 2.78125,-2.257812 2.78125,-3.453125 0,-1.0625 -1.722656,-2.386718 -2.386719,-3.050781 L 41.242188,75.96875 c -0.664063,-0.664062 -2.121094,-2.921875 -3.3125,-2.65625 m 15.644531,13.808594 c 0.929687,1.460937 2.257812,2.65625 3.453125,3.984375 l 5.832031,6.371093 c 0.929687,1.058594 2.386719,3.320318 3.710937,3.718748 1.0625,0.26563 2.523438,-1.996091 3.320313,-2.792966 l 7.554687,-8.226563 c 0.664063,-0.664062 2.253907,-1.992187 2.121094,-3.054687 -0.132812,-1.195313 -1.855468,-2.519532 -2.648437,-3.316406 L 69.757812,76.101562 C 69.09375,75.4375 67.632812,73.046875 66.4375,73.3125 c -1.324219,0.398438 -2.78125,2.65625 -3.710938,3.71875 L 53.574219,87.121094 M 95.21875,73.3125 c -1.058594,0.265625 -2.253906,2.125 -3.054688,2.921875 l -6.890624,7.4375 c -0.664063,0.796875 -2.785157,2.253906 -2.652344,3.449219 0.132812,0.796875 1.058594,1.59375 1.589844,2.125 l 4.109374,4.511718 5.175782,5.574219 c 0.53125,0.53125 1.324218,1.730469 2.121094,1.597659 1.058593,-0.26563 2.253906,-2.128909 3.046874,-2.925784 l 6.898438,-7.429687 c 0.66406,-0.796875 2.78516,-2.257813 2.65234,-3.453125 C 108.08203,86.324219 107.15625,85.527344 106.625,85 L 102.51172,80.480469 97.339844,74.90625 C 96.941406,74.375 96.148438,73.179688 95.21875,73.3125 m 28.64453,-0.265625 -12.99609,14.074219 c 0.92578,1.460937 2.2539,2.65625 3.44531,3.984375 l 6.23438,6.765625 c 0.79687,0.796875 2.2539,3.191406 3.44921,3.191406 0.79297,0 1.58985,-1.199219 2.1211,-1.863281 l 5.04297,-5.441407 4.10937,-4.511718 c 0.52734,-0.53125 1.45703,-1.328125 1.45703,-2.125 0,-1.195313 -2.2539,-2.917969 -3.05078,-3.714844 l -6.23437,-6.773438 c -1.0586,-1.195312 -2.1211,-2.523437 -3.57813,-3.585937 m 15.64844,14.074219 c 0.92578,1.460937 2.25781,2.65625 3.44922,3.984375 l 5.83203,6.371093 c 0.92969,1.058594 2.38672,3.320318 3.71484,3.718748 1.0586,0.26563 2.51953,-1.996091 3.31641,-2.792966 l 7.55859,-8.226563 c 0.66016,-0.664062 2.25391,-1.992187 2.1211,-3.054687 -0.13282,-1.195313 -1.85547,-2.519532 -2.65235,-3.316406 l -7.16015,-7.703126 c -0.66407,-0.664062 -2.125,-3.054687 -3.31641,-2.789062 -1.32813,0.398438 -2.78516,2.65625 -3.71484,3.71875 l -9.14844,10.089844 m 28.64453,0 c 0.92969,1.460937 2.25391,2.65625 3.44922,3.984375 l 5.83203,6.371093 c 0.92969,1.058594 2.39062,3.320318 3.71484,3.718748 1.0625,0.26563 2.51953,-1.996091 3.31641,-2.792966 l 7.55859,-8.226563 c 0.66407,-0.664062 2.25391,-1.992187 2.1211,-3.054687 -0.12891,-1.195313 -1.85547,-2.519532 -2.64844,-3.316406 l -7.16406,-7.703126 c -0.66407,-0.664062 -2.1211,-3.054687 -3.3125,-2.789062 -1.32813,0.398438 -2.78907,2.65625 -3.71875,3.71875 l -9.14844,10.089844 M 210.0625,73.046875 197.06641,87.121094 c 1.0625,1.59375 2.38671,2.921875 3.71093,4.25 l 6.10547,6.5 c 0.79297,0.796875 2.25391,3.191406 3.44531,3.191406 0.79688,0 1.45704,-1.066406 1.98829,-1.597656 0.66406,-0.664063 1.58984,-1.460938 1.98828,-2.386719 0.53125,-1.0625 0.26562,-2.789063 0.26562,-3.984375 V 82.605469 c 0,-1.460938 0.39844,-3.585938 -0.13281,-4.910157 -0.79688,-1.726562 -3.05078,-3.585937 -4.375,-4.648437 M 23.871094,88.316406 14.320312,98.535156 c -0.792968,0.929688 -1.589843,1.726564 -2.386718,2.660154 -0.261719,0.39844 -0.792969,0.79688 -0.792969,1.46094 0,0.66406 0.53125,1.0625 0.792969,1.45703 0.796875,0.92969 1.59375,1.72656 2.386718,2.52344 l 9.550782,10.35156 c 1.457031,-1.05859 2.652344,-2.65234 3.84375,-3.98047 l 6.101562,-6.5039 c 0.796875,-0.79688 3.050782,-2.51953 3.050782,-3.71485 0,-1.19531 -2.253907,-2.925779 -3.050782,-3.722654 L 27.714844,92.5625 c -1.191406,-1.722656 -2.386719,-3.183594 -3.84375,-4.246094 m 28.644531,0 -9.550781,10.21875 c -0.792969,0.796875 -1.589844,1.726564 -2.386719,2.527344 -0.265625,0.39844 -0.792969,0.92969 -0.792969,1.46094 0,0.53125 0.527344,1.0625 0.792969,1.46094 0.796875,0.92578 1.59375,1.72265 2.386719,2.51953 l 5.835937,6.37109 c 1.195313,1.32813 2.519531,2.52344 3.449219,3.98047 1.457031,-0.79297 2.519531,-2.25391 3.714844,-3.44922 l 6.496094,-7.03516 c 0.796874,-0.79687 3.050781,-2.51953 3.050781,-3.71484 0,-1.19531 -2.253907,-2.925781 -3.050781,-3.722656 l -6.097657,-6.503906 c -1.195312,-1.589844 -2.390625,-3.050782 -3.847656,-4.113282 m 28.648437,0 -9.550781,10.21875 c -0.796875,0.796875 -1.589843,1.726564 -2.386719,2.527344 -0.265624,0.39844 -0.796874,0.79688 -0.796874,1.46094 0,0.66406 0.53125,1.0625 0.796874,1.46094 0.796876,0.92578 1.589844,1.72265 2.386719,2.51953 l 5.832031,6.37109 c 1.195313,1.32813 2.519532,2.52344 3.453126,3.98047 1.457031,-0.79297 2.519531,-2.25391 3.710937,-3.44922 l 6.496094,-7.03516 c 0.796875,-0.92968 3.054687,-2.51953 3.054687,-3.84765 0,-1.32813 -2.257812,-2.925784 -3.054687,-3.722659 L 84.875,92.03125 c -1.195312,-1.324219 -2.386719,-2.785156 -3.710938,-3.714844 m 28.640628,0 -9.54688,10.21875 c -0.929685,0.929688 -3.183591,2.660154 -3.316404,3.988284 -0.132812,1.0625 1.59375,2.38672 2.121094,3.05078 l 7.5625,8.23047 c 0.66406,0.66406 1.98828,2.78906 3.04688,2.65625 C 110.33594,116.32813 111,115.53125 111.39844,115 l 3.84375,-4.25 5.4375,-5.57422 c 0.66406,-0.66406 1.85547,-1.58984 1.98828,-2.51953 0.13281,-1.32812 -2.12109,-2.925781 -2.78125,-3.722656 l -6.10156,-6.503906 c -1.32813,-1.589844 -2.51953,-3.050782 -3.98047,-4.113282 m 28.64453,0 -9.54688,10.21875 c -0.92968,0.929688 -3.18359,2.660154 -3.3164,3.988284 -0.13281,1.0625 1.58984,2.38672 2.12109,3.05078 l 7.5625,8.23047 c 0.66016,0.66406 1.98828,2.78906 3.04688,2.65625 0.66406,-0.13281 1.32812,-0.92969 1.72265,-1.46094 l 3.85156,-4.25 5.16797,-5.57422 c 0.66407,-0.66406 1.85547,-1.58984 1.98828,-2.51953 0.13282,-1.32812 -2.12109,-2.925781 -2.78125,-3.722656 l -6.10156,-6.503906 c -1.0625,-1.589844 -2.25781,-3.050782 -3.71484,-4.113282 m 28.64844,0 -9.55079,10.351563 c -0.79296,0.796875 -1.58984,1.726561 -2.38671,2.527341 -0.26172,0.39844 -0.79297,0.79688 -0.79297,1.46094 0,0.66406 0.53125,1.0625 0.79297,1.45703 0.79687,0.92969 1.59375,1.72656 2.38671,2.52344 l 5.83594,6.37109 c 1.19141,1.32813 2.51563,2.52344 3.44922,3.98047 1.45703,-0.79297 2.51953,-2.2539 3.71094,-3.44922 l 6.49609,-7.03515 c 0.79688,-0.79688 3.05469,-2.51953 3.05469,-3.71485 0,-1.19531 -2.25781,-2.925779 -3.05469,-3.722654 l -6.23047,-6.769531 c -1.1914,-1.589844 -2.38672,-3.050781 -3.71093,-3.980469 m 15.64843,14.207034 c 1.19141,1.85547 3.04688,3.44922 4.50782,5.17578 l 8.48828,9.15625 c 1.32422,-1.05859 2.51953,-2.51953 3.71093,-3.71484 l 6.23438,-6.76954 c 0.79687,-0.79687 3.05078,-2.51953 3.05078,-3.71484 0,-0.92969 -1.19531,-1.72656 -1.72266,-2.39453 l -5.04296,-5.441408 -4.10938,-4.511718 c -0.53125,-0.53125 -1.19531,-1.59375 -1.98828,-1.59375 -0.53125,0 -0.92969,0.53125 -1.32813,0.929687 -0.79296,0.796875 -1.58984,1.726563 -2.38671,2.519531 l -9.41407,10.359378 m 31.42578,-2.792971 c -0.66015,0.800781 -2.12109,1.730471 -2.2539,2.792971 -0.26563,1.19531 1.72265,2.65234 2.51953,3.3164 0,-1.85546 0.39844,-4.3789 -0.26563,-6.109371 M 6.765625,100.66406 v 3.71485 c 1.722656,-1.32422 1.722656,-2.38672 0,-3.71485 m 16.042969,17.39063 c -1.589844,-2.39063 -3.710938,-4.25 -5.703125,-6.375 l -5.171875,-5.57422 c -0.527344,-0.66406 -1.324219,-1.85938 -2.121094,-1.99219 -0.660156,-0.1289 -1.058594,0.39844 -1.457031,0.79688 -1.191407,1.19531 -1.457031,1.99218 -1.457031,3.71875 v 17.78906 c 0,1.85937 0.265624,2.78906 1.457031,4.24609 0.398437,0.39844 0.796875,0.92969 1.328125,0.92969 1.058594,0.13281 2.78125,-2.51953 3.578125,-3.31641 l 9.546875,-10.22265 m 28.644531,0 c -0.925781,-1.46094 -2.253906,-2.65625 -3.445313,-3.98438 l -6.234374,-6.76953 c -0.796876,-0.79687 -2.253907,-3.1875 -3.449219,-3.1875 -0.792969,0 -1.589844,1.19531 -2.121094,1.85938 l -5.035156,5.4414 -4.113281,4.51563 c -0.53125,0.53125 -1.460938,1.32422 -1.460938,2.125 0,1.0625 1.722656,2.39062 2.386719,3.05469 l 7.429687,7.96484 c 0.660156,0.79297 2.121094,2.91797 3.3125,2.78515 1.328125,-0.13281 2.785156,-2.65234 3.710938,-3.58203 l 9.019531,-10.22265 m 28.648437,0 c -0.933593,-1.46094 -2.257812,-2.65625 -3.449218,-3.98438 l -5.835938,-6.37109 c -0.925781,-1.0625 -2.386718,-3.32031 -3.714844,-3.71484 -1.058593,-0.26563 -2.519531,1.98828 -3.3125,2.78515 L 56.230469,115 c -0.664063,0.66406 -2.257813,1.98828 -2.125,3.05469 0.132812,1.19531 1.859375,2.52344 2.65625,3.32031 l 7.160156,7.69922 c 0.660156,0.79297 2.121094,2.91797 3.3125,2.65234 1.460937,-0.26562 2.921875,-2.78515 3.847656,-3.84765 l 9.019531,-9.82422 m 28.644528,0 c -0.92968,-1.46094 -2.2539,-2.65625 -3.44921,-3.98438 l -5.835942,-6.37109 c -0.925782,-1.0625 -2.386719,-3.32031 -3.710938,-3.71484 -1.0625,-0.26563 -2.519531,1.98828 -3.316406,2.78515 L 84.875,115 c -0.664062,0.66406 -2.253906,1.98828 -2.121094,3.05469 0.132813,1.19531 1.855469,2.52344 2.652344,3.32031 2.386719,2.51953 4.636719,5.17578 7.160156,7.69922 0.664063,0.66015 2.253906,2.91797 3.316406,2.65234 1.457032,-0.39844 2.914063,-2.78515 3.84375,-3.84765 l 9.019528,-9.82422 m 2.1211,-0.26953 c 0.92578,1.46484 2.2539,2.66015 3.44531,3.98828 l 6.10156,6.5039 c 0.79688,0.92969 2.38672,3.31641 3.71485,3.31641 1.32422,0 2.91406,-2.51953 3.71093,-3.31641 l 9.55078,-10.35546 c -0.92968,-1.46094 -2.2539,-2.65625 -3.44921,-3.98438 l -6.23438,-6.76953 c -0.79687,-0.79688 -2.2539,-3.18359 -3.44531,-3.18359 -0.53125,0 -0.92969,0.52734 -1.32813,0.92578 -0.79296,0.79687 -1.58984,1.72656 -2.38671,2.52343 l -9.67969,10.35157 m 28.64453,0 c 0.92578,1.46484 2.25781,2.66015 3.44922,3.98828 l 6.09765,6.5039 c 0.79688,0.92969 2.38672,3.31641 3.71485,3.31641 1.32812,0 2.91797,-2.51953 3.71484,-3.31641 l 9.54297,-10.35546 c -1.05859,-1.59375 -2.38281,-2.92188 -3.71094,-4.25 l -6.09765,-6.50391 c -0.79688,-0.79688 -2.25391,-3.18359 -3.44922,-3.18359 -0.53125,0 -0.92969,0.52734 -1.32813,0.92578 -0.79297,0.79687 -1.58984,1.72656 -2.38672,2.52343 l -9.54687,10.35157 m 28.64453,0 c 0.92969,1.46484 2.25391,2.66015 3.44922,3.98828 l 6.09765,6.5039 c 0.79688,0.92969 2.39063,3.31641 3.71485,3.31641 1.32812,0 2.91797,-2.51953 3.71484,-3.31641 l 9.54688,-10.35546 c -0.92578,-1.46094 -2.25391,-2.65625 -3.44532,-3.98438 L 185,107.16797 c -0.79688,-0.79688 -2.25391,-3.18359 -3.44922,-3.18359 -0.52734,0 -0.92578,0.52734 -1.32422,0.92578 -0.79687,0.79687 -1.58984,1.72656 -2.39062,2.52343 l -9.67969,10.35157 m 41.64062,-13.80078 c -1.05859,0.26171 -2.12109,1.98828 -2.78125,2.78515 l -6.89843,7.4336 c -0.66407,0.79687 -2.78516,2.25781 -2.78516,3.44921 0,0.80079 0.92969,1.59766 1.45703,2.12891 l 4.51172,4.91016 5.03906,5.4414 c 0.53125,0.53125 1.32422,1.72656 2.1211,1.59375 0.53125,-0.13281 0.92578,-0.66406 1.32422,-1.0625 0.79687,-0.92969 2.2539,-1.98828 2.51953,-3.3164 0.53125,-1.99219 0.13281,-4.64453 0.13281,-6.76953 V 112.875 c 0,-1.32812 0.13281,-2.65234 0,-3.98047 -0.26563,-1.59375 -1.98828,-2.92187 -3.05078,-3.98437 -0.39453,-0.39844 -0.92578,-1.0586 -1.58985,-0.92578 m -185.925776,15 L 10.875,132.92187 c 0.929688,1.46094 2.253906,2.66016 3.445312,3.98438 l 6.105469,6.50391 c 0.792969,0.79687 2.253907,3.1875 3.445313,3.1875 0.664062,0 1.324218,-0.92969 1.722656,-1.32813 l 4.109375,-4.51172 5.175781,-5.57812 c 0.53125,-0.53125 1.722656,-1.46094 1.722656,-2.39063 0,-1.19531 -2.253906,-2.92187 -3.046874,-3.71484 l -6.105469,-6.50391 c -1.058594,-1.19531 -2.253907,-2.65625 -3.578125,-3.58593 m 28.644531,0 -12.996094,14.07031 c 0.925781,1.46093 2.253907,2.65625 3.445313,3.98437 l 6.101562,6.50391 c 0.796875,0.79687 2.253906,3.1875 3.449219,3.1875 0.660156,0 1.324219,-0.92969 1.722656,-1.32813 l 4.113281,-4.51172 5.171876,-5.57421 c 0.527343,-0.53516 1.722656,-1.46485 1.722656,-2.39454 0,-1.19531 -2.253906,-2.92187 -3.050782,-3.71484 l -6.097656,-6.5039 c -1.0625,-1.32813 -2.257812,-2.78907 -3.582031,-3.71875 m 28.648437,0 -12.996093,14.07031 c 0.925781,1.46093 2.253906,2.65625 3.445312,3.98437 l 6.097657,6.50391 c 0.796874,0.79687 2.253906,3.1875 3.453124,3.1875 0.660157,0 1.324219,-0.92969 1.722657,-1.32813 l 4.109375,-4.51172 5.167968,-5.57421 c 0.535157,-0.53516 1.730469,-1.46485 1.730469,-2.39454 0,-1.19531 -2.257812,-2.92187 -3.054687,-3.71484 L 84.875,122.70313 c -1.195312,-1.32813 -2.386719,-2.78907 -3.710938,-3.71875 m 28.640628,0 -12.996096,13.93749 c 0.929687,1.46094 2.253906,2.66016 3.449216,3.98438 l 6.10157,6.50391 c 0.79687,0.79687 2.2539,3.1875 3.44531,3.1875 0.66406,0 1.32812,-0.92969 1.72656,-1.32813 l 4.10938,-4.51172 5.17187,-5.57812 c 0.53125,-0.53125 1.72266,-1.46094 1.72266,-2.39063 0,-1.19531 -2.25,-2.92187 -3.04688,-3.71484 l -6.10156,-6.50391 c -1.0625,-1.19531 -2.25391,-2.65625 -3.58203,-3.58593 m 28.64453,0 -9.28516,10.08984 c -0.92578,1.05859 -3.04687,2.51953 -3.44531,3.98047 -0.26562,1.19531 1.85547,2.78906 2.51953,3.45312 l 7.16406,7.69922 c 0.66016,0.79688 1.72266,2.52344 2.78125,2.65625 1.0625,0.13281 2.1211,-1.72656 2.78516,-2.39062 l 7.55859,-8.23047 c 0.66407,-0.66016 2.78516,-2.39063 2.51953,-3.45313 -0.26562,-1.46094 -2.51953,-2.92187 -3.44531,-3.98047 -2.78515,-3.32031 -5.69922,-7.30078 -9.15234,-9.82421 m 28.64844,0 -12.9961,14.07031 c 0.92578,1.46093 2.25391,2.65625 3.44531,3.98437 l 6.10157,6.50391 c 0.79297,0.79687 2.25,3.1875 3.44922,3.1875 0.79687,0 1.58984,-1.19531 2.12109,-1.85938 l 5.17187,-5.57422 4.10938,-4.51562 c 0.39844,-0.53125 1.19531,-1.19531 1.19531,-1.85938 0,-1.19531 -2.25781,-2.92187 -3.05078,-3.71484 l -6.10156,-6.5039 c -0.92578,-1.32813 -2.1211,-2.78907 -3.44531,-3.71875 m 28.3789,28.27734 c 1.58985,-0.79688 2.91406,-2.65625 4.10938,-3.98438 l 6.23437,-6.76953 c 1.0625,-1.1914 2.38672,-2.25781 3.05078,-3.71875 -3.44922,-2.65625 -6.36718,-6.63672 -9.28515,-9.82031 -0.92969,-0.92969 -2.38672,-3.32031 -3.71094,-3.58594 -1.0625,-0.13281 -2.12109,1.72657 -2.78516,2.39063 L 185.52734,130 c -0.66015,0.79687 -2.78125,2.25781 -2.38281,3.45312 0.52734,1.46094 2.38281,2.92188 3.44531,3.98438 2.91797,3.1875 6.63282,6.23828 8.88672,9.82422 m 18.69531,-16.86328 -2.65234,2.78906 c 0.79688,1.19531 1.72656,2.26172 2.78516,3.05469 0.13281,-1.72657 0.53125,-4.25 -0.13282,-5.84375 M 6.765625,131.32812 v 3.32032 c 1.457031,-1.19532 1.457031,-2.125 0,-3.32032 m 2.785156,31.19922 c 1.722657,-1.32812 3.179688,-3.3164 4.769531,-4.91015 l 8.488282,-9.16407 c -0.925782,-1.45703 -2.25,-2.65234 -3.445313,-3.98046 l -6.234375,-6.76954 c -0.796875,-0.79687 -2.519531,-3.45312 -3.710937,-3.1875 -0.53125,0.13282 -0.929688,0.66407 -1.328125,1.06641 -1.722656,1.85547 -1.324219,3.98047 -1.324219,6.36719 v 11.95312 c 0,1.58985 -0.398437,3.84766 0.132813,5.44141 0.398437,1.19531 1.722656,2.25391 2.652343,3.18359 m 28.640625,0 c 1.726563,-1.32812 3.183594,-3.3164 4.773438,-4.91015 l 8.488281,-9.16407 c -0.925781,-1.45703 -2.253906,-2.65234 -3.445313,-3.98046 l -6.234374,-6.76954 c -0.796876,-0.79687 -2.253907,-3.1875 -3.449219,-3.1875 -0.792969,0 -1.589844,1.19532 -2.121094,1.85938 l -5.035156,5.44531 -4.113281,4.51172 c -0.53125,0.53125 -1.460938,1.32813 -1.460938,2.12109 0,0.53125 0.53125,1.0625 0.796875,1.46094 0.792969,0.92969 1.589844,1.72656 2.386719,2.52344 l 9.414062,10.08984 m 28.644532,0 c 1.726562,-1.32812 3.1875,-3.3164 4.777343,-4.91015 l 8.488281,-9.16407 c -1.0625,-1.58984 -2.390624,-2.91796 -3.714843,-4.24609 l -6.097657,-6.50391 c -0.796874,-0.79687 -2.253906,-3.1875 -3.453124,-3.1875 -0.792969,0 -1.589844,1.19532 -2.121094,1.85938 l -5.039063,5.44531 -4.109375,4.51172 c -0.53125,0.53125 -1.460937,1.32813 -1.460937,2.12109 0,0.53125 0.53125,1.0625 0.796875,1.46094 0.796875,0.92969 1.59375,1.72656 2.390625,2.52344 l 9.542969,10.08984 m 28.648437,0 c 1.722656,-1.32812 3.179687,-3.3164 4.773435,-4.91015 l 8.48828,-9.16407 c -1.0625,-1.58984 -2.38671,-2.91796 -3.71093,-4.24609 l -6.105472,-6.50391 c -0.792969,-0.79687 -2.253907,-3.1875 -3.445313,-3.1875 -0.796875,0 -1.589844,1.19532 -2.121094,1.85938 l -5.042969,5.44531 -4.109374,4.51172 c -0.53125,0.53125 -1.457032,1.32813 -1.457032,2.12109 0,0.53125 0.53125,1.0625 0.792969,1.46094 0.796875,0.92969 1.59375,1.72656 2.386719,2.52344 l 9.550781,10.08984 m 28.644535,0 c 1.72265,-1.32812 3.17968,-3.3164 4.77343,-4.91015 l 8.48828,-9.16407 c -1.0625,-1.58984 -2.38671,-2.91796 -3.71484,-4.24609 l -6.10156,-6.50391 c -0.79297,-0.79687 -2.25391,-3.1875 -3.44531,-3.1875 -0.79688,0 -1.59375,1.19532 -2.1211,1.85938 l -5.03906,5.44531 -4.11328,4.51172 c -0.53125,0.53125 -1.45703,1.32813 -1.45703,2.12109 0,0.53125 0.52734,1.0625 0.79297,1.46094 0.79687,0.92969 1.59375,1.72656 2.38672,2.52344 l 9.55078,10.08984 m 28.64453,0 c 1.72656,-1.32812 3.18359,-3.3164 4.77343,-4.91015 l 8.48438,-9.16407 c -1.05859,-1.58984 -2.38281,-2.91796 -3.71094,-4.24609 l -6.09765,-6.50391 c -0.79688,-0.79687 -2.25391,-3.1875 -3.44922,-3.1875 -0.79688,0 -1.59375,1.19532 -2.1211,1.85938 l -5.03906,5.44531 -4.11328,4.51172 c -0.53125,0.53125 -1.46094,1.32813 -1.46094,2.12109 0,0.53125 0.53125,1.0625 0.79688,1.46094 0.80078,0.92969 1.59375,1.72656 2.39062,2.52344 l 9.54688,10.08984 m 28.64453,0 c 1.72656,-1.32812 3.18359,-3.3164 4.77344,-4.91015 l 8.48828,-9.16407 c -0.92578,-1.45703 -2.25391,-2.65234 -3.44532,-3.98046 L 185,137.70312 c -0.79688,-0.79687 -2.25391,-3.1875 -3.44922,-3.1875 -0.79297,0 -1.58984,1.19532 -2.12109,1.85938 l -5.03907,5.44531 -4.11328,4.51172 c -0.52734,0.53125 -1.45703,1.32813 -1.45703,2.12109 0,0.53125 0.53125,1.0625 0.79688,1.46094 0.79297,0.92969 1.58984,1.72656 2.38672,2.52344 l 9.41406,10.08984 m 28.64453,0 c 1.32422,-1.0625 3.31641,-2.78515 4.10937,-4.51172 0.66407,-1.59375 0.26563,-4.3789 0.26563,-6.10937 v -9.16016 c 0,-1.32422 0.26562,-3.05078 -0.13281,-4.24609 -0.39844,-1.19531 -1.58985,-2.125 -2.51953,-3.05078 -0.39844,-0.40235 -0.79297,-0.9336 -1.32422,-1.19922 -1.19532,-0.39844 -2.51953,1.72656 -3.31641,2.52344 l -7.55859,8.23047 c -0.66407,0.66406 -2.51953,2.125 -2.25391,3.3164 0.26563,1.46094 2.51953,2.92188 3.44531,3.98438 l 9.28516,10.22265 M 23.871094,149.38281 14.585938,159.47656 c -0.925782,1.0625 -3.046876,2.51953 -3.445313,3.98047 -0.265625,1.0625 1.457031,2.39063 2.121094,3.05469 l 7.558593,8.23047 c 0.664063,0.66406 2.121094,3.05468 3.316407,2.78906 1.324219,-0.39844 2.785156,-2.65625 3.710937,-3.71875 l 9.285156,-10.08984 c -1.722656,-2.65625 -4.375,-4.91016 -6.5,-7.30079 -2.253906,-2.38671 -4.242187,-5.17968 -6.761718,-7.03906 m 28.644531,0 -9.28125,10.09375 c -0.933594,1.0625 -3.054687,2.51953 -3.449219,3.98047 -0.265625,1.19531 1.855469,2.78906 2.515625,3.45313 l 7.5625,8.23046 c 0.664063,0.66407 1.855469,2.52344 2.785157,2.25782 1.324218,-0.39844 2.785156,-2.65625 3.714843,-3.71875 l 9.28125,-10.08985 c -1.722656,-2.65625 -4.375,-4.91015 -6.496093,-7.30078 -1.988282,-2.2539 -4.113282,-5.04687 -6.632813,-6.90625 m 28.648437,0 -9.285156,10.09375 c -0.929687,1.0625 -3.050781,2.51953 -3.449218,3.98047 -0.261719,1.0625 1.460937,2.39063 2.121093,3.05469 l 7.558594,8.23047 c 0.664063,0.66406 2.125,3.05468 3.316406,2.78906 1.328125,-0.39844 2.785157,-2.65625 3.714844,-3.71875 l 9.28125,-10.08984 c -1.722656,-2.65625 -4.378906,-4.91016 -6.5,-7.30079 -2.121094,-2.38671 -4.242187,-5.17968 -6.757813,-7.03906 m 28.640628,0 -9.28125,10.09375 c -0.92969,1.0625 -3.050784,2.51953 -3.449221,3.98047 -0.265625,1.0625 1.460937,2.39063 2.121093,3.05469 l 7.562498,8.23047 c 0.66016,0.66406 2.1211,3.05468 3.3125,2.78906 1.32813,-0.39844 2.78516,-2.65625 3.71485,-3.71875 l 9.28125,-10.08984 c -1.72266,-2.65625 -4.375,-4.91016 -6.5,-7.30079 -2.1211,-2.38671 -4.24219,-5.17968 -6.76172,-7.03906 m 28.64453,0 -9.28516,10.09375 c -0.92578,1.0625 -3.04687,2.51953 -3.44531,3.98047 -0.26562,1.0625 1.45703,2.39063 2.12109,3.05469 l 7.5625,8.23047 c 0.66016,0.66406 2.1211,3.05468 3.3125,2.78906 1.32422,-0.39844 2.78516,-2.65625 3.71485,-3.71875 l 9.28125,-10.08984 c -1.72266,-2.65625 -4.375,-4.91016 -6.4961,-7.30079 -2.12109,-2.38671 -4.24609,-5.17968 -6.76562,-7.03906 m 28.64844,0 -9.28516,10.09375 c -0.92578,1.0625 -3.04688,2.51953 -3.44531,3.98047 -0.26563,1.0625 1.45703,2.39063 2.12109,3.05469 l 7.55469,8.23047 c 0.66406,0.66406 2.12109,3.05468 3.32031,2.78906 1.32422,-0.39844 2.78516,-2.65625 3.71094,-3.71875 l 9.28515,-10.08984 c -1.72265,-2.65625 -4.3789,-4.91016 -6.5,-7.30079 -2.12109,-2.38671 -4.24218,-5.17968 -6.76171,-7.03906 m 28.64453,0.26563 c -1.0625,0.26562 -2.25391,2.125 -3.05078,2.92187 l -6.89844,7.4375 c -0.66016,0.79688 -2.78125,2.25391 -2.78125,3.44922 0,1.0625 1.72265,2.39063 2.38281,3.05469 l 7.42969,7.96484 c 0.66406,0.66406 2.12109,3.05469 3.3164,2.78906 1.0586,-0.26562 2.25,-2.125 3.04688,-2.92187 l 6.89844,-7.43359 c 0.66406,-0.79688 2.78515,-2.25782 2.78515,-3.45313 0,-1.0625 -1.72656,-2.39062 -2.38672,-3.05078 l -7.42968,-7.96875 c -0.66407,-0.79688 -2.25391,-3.05469 -3.3125,-2.78906 m 18.42968,11.15625 c -0.66015,0.79297 -2.12109,1.72265 -2.2539,2.78515 -0.26563,1.19532 1.72265,2.65625 2.51953,3.32032 0,-1.72657 0.39844,-4.38282 -0.26563,-6.10547 M 6.765625,161.73047 v 3.45312 c 0.664063,-0.53125 1.191406,-1.0625 1.722656,-1.59375 -0.53125,-0.66406 -1.058593,-1.32812 -1.722656,-1.85937 m 117.097655,2.92187 -9.28515,10.08985 c -0.92579,0.92968 -3.17969,2.65625 -3.3125,3.98437 -0.13282,1.32422 2.2539,3.1836 3.04687,3.98047 l 9.81641,10.48828 c 1.72265,-1.32422 3.17968,-3.3164 4.77343,-4.91015 l 8.48828,-9.16016 c -1.72656,-2.65625 -4.375,-4.91406 -6.49609,-7.30078 -2.25781,-2.39453 -4.3789,-5.3125 -7.03125,-7.17188 m 86.19922,0 -9.54688,10.35547 c -0.79687,0.79688 -1.59375,1.72656 -2.38671,2.52344 -0.26563,0.39844 -0.79688,0.79687 -0.79688,1.46094 0,0.66406 0.53125,1.05859 0.79688,1.45703 0.79296,0.92969 1.58984,1.72656 2.38671,2.52344 l 9.54688,10.35546 c 1.32422,-1.05859 3.31641,-2.78515 4.10937,-4.51171 0.26563,-0.66407 0.26563,-1.59766 0.26563,-2.39454 v -13.13671 c 0,-1.19532 0.26562,-2.78907 -0.13281,-3.98829 -0.66407,-1.72656 -2.91797,-3.71484 -4.24219,-4.64453 M 9.550781,193.19531 c 1.722657,-1.32422 3.179688,-3.3164 4.769531,-4.91015 l 8.488282,-9.16016 c -1.058594,-1.59375 -2.382813,-2.92188 -3.710938,-4.25 l -6.234375,-6.77344 c -0.664062,-0.79687 -2.386719,-3.3164 -3.445312,-2.91797 -0.53125,0.13282 -0.929688,0.66407 -1.328125,1.0625 -1.722656,1.85547 -1.324219,3.98438 -1.324219,6.375 v 11.94532 c 0,1.58984 -0.398437,3.85156 0.132813,5.44531 0.398437,1.19531 1.722656,2.25781 2.652343,3.18359 m 28.640625,0 c 3.316406,-2.51953 6.105469,-6.24219 8.886719,-9.42578 1.460937,-1.59375 3.449219,-3.1875 4.375,-5.17578 -3.445313,-2.65625 -6.363281,-6.63672 -9.28125,-9.82813 -0.929687,-1.0625 -2.386719,-3.3164 -3.714844,-3.71484 -1.058593,-0.26562 -2.253906,1.59375 -2.78125,2.25391 l -7.5625,8.23437 c -0.664062,0.66406 -2.785156,2.39063 -2.519531,3.45313 0.265625,1.45703 2.519531,2.91797 3.449219,3.98047 l 9.148437,10.22265 m 28.644532,0 c 1.726562,-1.32422 3.1875,-3.3164 4.777343,-4.91015 l 8.488281,-9.16016 c -1.0625,-1.59375 -2.390624,-2.92188 -3.714843,-4.25 l -6.097657,-6.50781 c -0.796874,-0.79688 -2.253906,-3.1836 -3.453124,-3.1836 -0.792969,0 -1.589844,1.19532 -2.121094,1.85938 L 59.675781,172.48828 55.566406,177 c -0.53125,0.53125 -1.460937,1.32812 -1.460937,2.125 0,0.53125 0.53125,1.05859 0.796875,1.45703 0.796875,0.92969 1.59375,1.72656 2.390625,2.52344 l 9.542969,10.08984 m 28.648437,0 c 1.722656,-1.32422 3.179687,-3.3164 4.773435,-4.91015 l 8.48828,-9.16016 c -1.0625,-1.59375 -2.38671,-2.92188 -3.71093,-4.25 l -6.105472,-6.50781 c -0.792969,-0.79688 -2.253907,-3.1836 -3.445313,-3.1836 -0.796875,0 -1.589844,1.19532 -2.121094,1.85938 L 88.320312,172.48828 84.210938,177 c -0.53125,0.53125 -1.457032,1.32812 -1.457032,2.125 0,0.53125 0.53125,1.05859 0.792969,1.45703 0.796875,0.92969 1.59375,1.72656 2.386719,2.52344 l 9.550781,10.08984 m 57.289065,0 c 1.72656,-1.32422 3.18359,-3.3164 4.77343,-4.91015 l 8.48438,-9.16016 c -0.92578,-1.46094 -2.25391,-2.65625 -3.44531,-3.98438 l -6.09766,-6.50781 c -0.92969,-0.92969 -2.38672,-3.3164 -3.71484,-3.58203 -1.0625,-0.13281 -2.1211,1.72656 -2.78516,2.38672 l -7.55859,8.23437 c -0.66016,0.66407 -2.52344,2.125 -2.39063,3.32032 0.13281,1.32422 2.39063,3.05078 3.32031,3.98047 l 9.41407,10.22265 m 28.64453,0 c 1.72656,-1.32422 3.18359,-3.3164 4.77344,-4.91015 l 8.48828,-9.16016 c -0.92578,-1.46094 -2.25391,-2.65625 -3.44532,-3.98438 L 185,168.36719 c -0.79688,-0.79688 -2.25391,-3.1836 -3.44922,-3.1836 -0.79297,0 -1.58984,1.19532 -2.12109,1.85938 l -5.03907,5.44531 L 170.27734,177 c -0.52734,0.53125 -1.45703,1.32812 -1.45703,2.125 0,0.53125 0.53125,1.05859 0.79688,1.45703 0.79297,0.92969 1.58984,1.72656 2.38672,2.52344 l 9.41406,10.08984 M 23.871094,180.31641 c -1.0625,0.26562 -2.253906,2.125 -3.050782,2.92187 l -6.894531,7.4375 c -0.664062,0.79688 -2.785156,2.25391 -2.785156,3.44922 0,1.0625 1.722656,2.39062 2.386719,3.05469 l 7.425781,7.96484 c 0.664063,0.66406 2.121094,3.05469 3.316406,2.78906 1.058594,-0.26562 2.253907,-2.125 3.046875,-2.91797 l 6.898438,-7.4375 C 34.878906,196.78125 37,195.32031 37,194.125 c 0,-1.0625 -1.722656,-2.38672 -2.386719,-3.05078 l -7.429687,-7.96875 c -0.792969,-0.66406 -2.253906,-3.05469 -3.3125,-2.78906 m 28.644531,-0.26563 -9.28125,10.09375 c -0.933594,1.0625 -3.054687,2.51953 -3.449219,3.98047 -0.265625,1.19531 1.855469,2.78906 2.515625,3.45312 l 7.5625,8.23047 c 0.664063,0.66407 1.855469,2.52344 2.785157,2.25782 1.324218,-0.39844 2.785156,-2.65625 3.714843,-3.71875 l 9.28125,-10.08985 c -1.722656,-2.65234 -4.375,-4.91015 -6.496093,-7.30469 -1.988282,-2.2539 -4.113282,-5.04296 -6.632813,-6.90234 m 28.648437,0 -9.285156,10.09375 c -0.929687,1.0625 -3.050781,2.51953 -3.449218,3.98047 -0.261719,1.19531 1.859374,2.78906 2.519531,3.45312 l 7.558593,8.23047 c 0.660157,0.66407 1.859376,2.52344 2.789063,2.25782 1.324219,-0.39844 2.78125,-2.65625 3.710937,-3.71875 l 9.285157,-10.08985 c -1.726563,-2.65234 -4.378907,-4.91015 -6.5,-7.30469 -2.125,-2.38671 -4.113281,-5.04296 -6.628907,-6.90234 M 96.542969,194.125 c 0.929687,1.46094 2.253906,2.65625 3.449219,3.98437 l 6.234372,6.76954 c 0.79688,0.79687 2.25391,3.1875 3.44532,3.1875 0.53125,0 0.92968,-0.53125 1.32812,-0.92969 0.79297,-0.79688 1.58984,-1.72656 2.38672,-2.52344 l 9.54687,-10.35547 c -0.92578,-1.46094 -2.2539,-2.78515 -3.57812,-4.11328 l -6.10156,-6.50781 c -0.79688,-0.79688 -2.25391,-3.1875 -3.44922,-3.1875 -0.52735,0 -0.92578,0.53125 -1.32422,0.92969 -0.79688,0.79687 -1.58984,1.72656 -2.38672,2.52343 L 96.542969,194.125 m 55.167971,0.26562 c -0.92969,-1.46093 -2.25391,-2.65234 -3.44532,-3.98046 l -5.83593,-6.375 c -0.92969,-1.0625 -2.39063,-3.32032 -3.71485,-3.71875 -1.05859,-0.26563 -2.51953,1.99218 -3.3125,2.78906 l -7.5625,8.23437 c -0.66406,0.66407 -2.2539,1.98828 -2.12109,3.05078 0.13281,1.19532 1.85547,2.52344 2.65234,3.32032 l 7.16016,7.69922 c 0.66406,0.66406 2.125,3.05468 3.31641,2.78906 1.32421,-0.39844 2.78906,-2.65625 3.71484,-3.71875 l 9.14844,-10.08985 m 15.38672,-14.33984 -9.28516,10.09375 c -0.92578,1.0625 -3.04688,2.51953 -3.44531,3.98047 -0.26563,1.19531 1.85547,2.78906 2.51953,3.45312 l 7.55469,8.23047 c 0.66406,0.66407 1.85937,2.52344 2.78906,2.25782 1.32422,-0.39844 2.78515,-2.65625 3.71094,-3.71875 l 9.28515,-10.08985 c -1.72656,-2.65234 -4.3789,-4.91015 -6.5,-7.30469 -1.98828,-2.2539 -4.10937,-5.04296 -6.6289,-6.90234 m 15.64843,14.07422 c 0.92578,1.46094 2.25391,2.65625 3.44532,3.98437 l 5.83593,6.3711 c 0.92969,1.0625 2.38672,3.32031 3.71485,3.71875 1.05859,0.26562 2.51953,-1.99219 3.3125,-2.78906 l 7.5625,-8.23047 c 0.66015,-0.66407 2.2539,-1.99219 2.12109,-3.05469 -0.13281,-1.19531 -1.85547,-2.51953 -2.65234,-3.31641 l -7.16407,-7.70312 c -0.66015,-0.66406 -2.12109,-3.05469 -3.3125,-2.78906 -1.32812,0.39843 -2.78515,2.65625 -3.71484,3.71875 l -9.14844,10.08984 m 31.42578,-2.51953 c -0.66015,0.79687 -2.12109,1.72265 -2.2539,2.78515 -0.26563,1.19532 1.72265,2.65625 2.51953,3.32032 0,-1.85938 0.39844,-4.51563 -0.26563,-6.10547 M 6.765625,192.53125 v 3.45312 c 1.457031,-1.19531 1.855469,-2.52343 0,-3.45312 m 2.785156,31.33594 c 1.722657,-1.32813 3.179688,-3.32422 4.769531,-4.91797 l 8.488282,-9.15625 c -1.058594,-1.59375 -2.382813,-2.92188 -3.710938,-4.25 l -6.234375,-6.77344 c -0.664062,-0.79297 -2.386719,-3.31641 -3.445312,-2.91797 -0.53125,0.13281 -0.929688,0.66406 -1.328125,1.0625 -1.722656,1.85547 -1.324219,3.98047 -1.324219,6.3711 v 11.94921 c 0,1.59375 -0.398437,3.84766 0.132813,5.44141 0.398437,1.19531 1.722656,2.26172 2.652343,3.19141 m 28.640625,0 c 1.726563,-1.32813 3.183594,-3.32422 4.773438,-4.91797 l 8.488281,-9.15625 c -0.925781,-1.46094 -2.253906,-2.65625 -3.445313,-3.98438 l -6.234374,-6.77343 c -0.796876,-0.79297 -2.253907,-3.1836 -3.449219,-3.1836 -0.792969,0 -1.589844,1.19531 -2.121094,1.85938 l -5.035156,5.4414 -4.113281,4.51563 c -0.53125,0.53125 -1.460938,1.32812 -1.460938,2.125 0,0.53125 0.53125,1.0625 0.796875,1.46094 0.792969,0.92578 1.589844,1.72265 2.386719,2.51953 l 9.414062,10.09375 m 28.644532,0 c 1.726562,-1.32813 3.1875,-3.32422 4.777343,-4.91797 l 8.488281,-9.15625 c -0.933593,-1.46094 -2.257812,-2.65625 -3.449218,-3.98438 l -6.230469,-6.77343 c -0.796875,-0.79297 -2.253906,-3.1836 -3.453125,-3.1836 -0.796875,0 -1.589844,1.19531 -2.121094,1.85938 l -5.039062,5.4414 -4.109375,4.51563 c -0.53125,0.53125 -1.460938,1.32812 -1.460938,2.125 0,0.53125 0.53125,1.0625 0.796875,1.46094 0.796875,0.92578 1.59375,1.72265 2.390625,2.51953 l 9.410157,10.09375 m 28.648437,0 c 1.722656,-1.32813 3.179687,-3.32422 4.773435,-4.91797 l 8.48828,-9.15625 c -1.0625,-1.59375 -2.38671,-2.92188 -3.71093,-4.25 l -6.105472,-6.50781 c -0.792969,-0.79297 -2.253907,-3.1836 -3.445313,-3.1836 -0.796875,0 -1.589844,1.19531 -2.121094,1.85938 l -5.042969,5.4414 -4.109374,4.51563 c -0.53125,0.53125 -1.457032,1.32812 -1.457032,2.125 0,0.53125 0.53125,1.0625 0.792969,1.46094 0.796875,0.92578 1.59375,1.72265 2.386719,2.51953 l 9.550781,10.09375 m 28.644535,0 c 1.72265,-1.32813 3.17968,-3.32422 4.77343,-4.91797 l 8.48828,-9.15625 c -0.92968,-1.46094 -2.2539,-2.65625 -3.44921,-3.98438 l -6.23438,-6.77343 c -0.79687,-0.79297 -2.2539,-3.1836 -3.44531,-3.1836 -0.79688,0 -1.59375,1.19531 -2.12109,1.85938 l -5.03907,5.4414 -4.11328,4.51563 c -0.53125,0.53125 -1.45703,1.32812 -1.45703,2.125 0,0.53125 0.52734,1.0625 0.79297,1.46094 0.79687,0.92578 1.58984,1.72265 2.38672,2.51953 l 9.41797,10.09375 m 28.64453,0 c 1.72656,-1.32813 3.18359,-3.32422 4.77343,-4.91797 l 8.48438,-9.15625 c -0.92578,-1.46094 -2.25391,-2.65625 -3.44531,-3.98438 l -6.23047,-6.77343 c -0.79688,-0.79297 -2.25391,-3.1836 -3.45313,-3.1836 -0.79297,0 -1.58984,1.19531 -2.12109,1.85938 l -5.03516,5.4414 -4.10937,4.51563 c -0.53516,0.53125 -1.46485,1.32812 -1.46485,2.125 0,0.53125 0.53125,1.0625 0.79688,1.46094 0.80078,0.92578 1.59375,1.72265 2.39062,2.51953 l 9.41407,10.09375 m 28.64453,0 c 1.72656,-1.32813 3.18359,-3.32422 4.77344,-4.91797 l 8.48828,-9.15625 c -1.0586,-1.59375 -2.38672,-2.92188 -3.71094,-4.25 l -6.10156,-6.50781 c -0.79688,-0.79297 -2.25391,-3.1836 -3.44922,-3.1836 -0.79297,0 -1.58985,1.19531 -2.1211,1.85938 l -5.03906,5.4414 -4.10937,4.51563 c -0.53125,0.53125 -1.46094,1.32812 -1.46094,2.125 0,0.53125 0.53125,1.0625 0.79687,1.46094 0.79297,0.92578 1.58985,1.72265 2.38672,2.51953 l 9.54688,10.09375 m 28.64453,0 c 1.32422,-1.0625 3.31641,-2.79297 4.10937,-4.51953 0.66407,-1.59375 0.26563,-4.37891 0.26563,-6.10547 v -9.16016 c 0,-1.32812 0.26562,-3.05469 -0.13281,-4.25 -0.39844,-1.19141 -1.58985,-2.12109 -2.51953,-3.05078 -0.39844,-0.39844 -0.79297,-0.92969 -1.32422,-1.19531 -1.19532,-0.39844 -2.51953,1.72656 -3.31641,2.52343 l -7.55859,8.23047 c -0.66407,0.66407 -2.51953,2.125 -2.25391,3.32032 0.26563,1.46093 2.51953,2.91796 3.44531,3.98046 l 9.28516,10.22657 M 23.871094,210.72266 14.585938,220.80859 c -0.925782,1.0625 -3.046876,2.52735 -3.445313,3.98438 -0.265625,1.0625 1.457031,2.39062 2.121094,3.05469 l 7.558593,8.23046 c 0.664063,0.66016 2.121094,3.05079 3.316407,2.78516 1.324219,-0.39844 2.785156,-2.65234 3.710937,-3.71484 l 9.285156,-10.08985 c -1.722656,-2.65234 -4.375,-4.91406 -6.5,-7.30468 -2.121093,-2.38672 -4.242187,-5.17579 -6.761718,-7.03125 m 28.644531,0 -9.28125,10.08593 c -0.933594,1.0625 -3.054687,2.52735 -3.449219,3.98438 -0.265625,1.0625 1.457032,2.39062 2.121094,3.05469 l 7.558594,8.23046 c 0.664062,0.66016 2.121094,3.05079 3.316406,2.78516 1.324219,-0.39844 2.785156,-2.65234 3.714844,-3.71484 l 9.28125,-10.08985 c -1.726563,-2.65234 -4.375,-4.91406 -6.496094,-7.30468 -2.121094,-2.25391 -4.246094,-5.17579 -6.765625,-7.03125 m 28.648437,0 -9.285156,10.08593 c -0.929687,1.0625 -3.050781,2.52735 -3.449218,3.98438 -0.261719,1.0625 1.460937,2.39062 2.121093,3.05469 l 7.558594,8.23046 c 0.664063,0.66016 2.125,3.05079 3.316406,2.78516 1.328125,-0.39844 2.785157,-2.65234 3.714844,-3.71484 l 9.28125,-10.08985 c -1.722656,-2.65234 -4.378906,-4.91406 -6.5,-7.30468 -2.121094,-2.38672 -4.242187,-5.17579 -6.757813,-7.03125 m 28.640628,0 -9.28125,10.08593 c -0.92969,1.0625 -3.050784,2.52735 -3.449221,3.98438 -0.265625,1.0625 1.460937,2.39062 2.121093,3.05469 l 7.562498,8.23046 c 0.66016,0.66016 2.1211,3.05079 3.3125,2.78516 1.32813,-0.39844 2.78516,-2.65234 3.71485,-3.71484 l 9.28125,-10.08985 c -1.72266,-2.65234 -4.375,-4.91406 -6.5,-7.30468 -2.1211,-2.25391 -4.24219,-5.17579 -6.76172,-7.03125 m 28.64453,0 -9.28516,10.08593 c -0.92578,1.0625 -3.04687,2.52735 -3.44531,3.98438 -0.26562,1.19531 1.85547,2.78906 2.51953,3.45312 l 7.55859,8.23047 c 0.66407,0.66016 1.85938,2.51953 2.78516,2.25391 1.32422,-0.39844 2.78516,-2.65235 3.71484,-3.71485 l 9.28125,-10.08984 c -1.72265,-2.65625 -4.375,-4.91406 -6.49609,-7.30078 -1.98828,-2.125 -4.11328,-5.04688 -6.63281,-6.90234 m 28.64844,0 -9.28516,10.08593 c -0.92578,1.0625 -3.04688,2.52735 -3.44531,3.98438 -0.26563,1.0625 1.45703,2.39062 2.12109,3.05469 l 7.55469,8.23046 c 0.66406,0.66016 2.12109,3.05079 3.32031,2.78516 1.32422,-0.39844 2.78516,-2.65234 3.71094,-3.71484 l 9.28515,-10.08985 c -1.72265,-2.65234 -4.3789,-4.91406 -6.5,-7.30468 -2.12109,-2.25391 -4.24218,-5.17579 -6.76171,-7.03125 m 28.64453,0.39843 c -1.0625,0.26172 -2.25391,2.1211 -3.05078,2.91797 l -6.89844,7.4336 c -0.66016,0.79687 -2.78125,2.26171 -2.78125,3.45312 0,1.0625 1.72265,2.39063 2.38281,3.05469 l 7.42969,7.96484 c 0.66406,0.66016 2.12109,3.05078 3.3164,2.78516 1.0586,-0.26563 2.25,-2.125 3.04688,-2.91797 l 6.89844,-7.43359 c 0.66406,-0.79688 2.78515,-2.25782 2.78515,-3.45313 0,-1.05859 -1.72656,-2.38672 -2.38672,-3.05469 l -7.42968,-7.96484 c -0.66407,-0.79688 -2.25391,-3.18359 -3.3125,-2.78516 m 18.42968,11.14844 c -0.66015,0.80078 -2.12109,1.72656 -2.2539,2.78906 -0.26563,1.19532 1.72265,2.65625 2.51953,3.32032 0,-1.85938 0.39844,-4.51172 -0.26563,-6.10938 M 6.765625,223.20312 v 3.44922 c 0.664063,-0.53125 1.191406,-1.0625 1.722656,-1.59375 -0.53125,-0.79687 -1.058593,-1.32422 -1.722656,-1.85547 m 117.097655,2.78516 -9.28515,10.08984 c -0.92579,0.92579 -3.17969,2.65235 -3.3125,3.98438 -0.13282,1.32812 2.2539,3.18359 3.04687,3.98047 l 9.81641,10.48828 c 1.72265,-1.32813 3.17968,-3.32031 4.77343,-4.91406 l 8.48828,-9.15625 c -1.72656,-2.66016 -4.375,-4.91407 -6.49609,-7.30469 -2.25781,-2.39063 -4.3789,-5.17578 -7.03125,-7.16797 m 86.19922,0 -9.54688,10.35547 c -0.79687,0.79297 -1.59375,1.72266 -2.38671,2.51953 -0.26563,0.39844 -0.79688,0.79688 -0.79688,1.46484 0,0.53125 0.53125,1.0625 0.79688,1.46094 0.79296,0.92969 1.58984,1.72266 2.38671,2.51953 l 9.54688,10.35547 c 1.32422,-1.0625 3.31641,-2.78906 4.10937,-4.51562 0.26563,-0.66407 0.26563,-1.58985 0.26563,-2.38672 v -13.14453 c 0,-1.19532 0.26562,-2.78907 -0.13281,-3.98438 -0.66407,-1.72265 -2.91797,-3.58203 -4.24219,-4.64453 M 9.550781,254.53125 c 1.722657,-1.32813 3.179688,-3.32031 4.769531,-4.91406 l 8.488282,-9.15625 c -1.058594,-1.59766 -2.382813,-2.92578 -3.710938,-4.25 l -6.234375,-6.76953 c -0.664062,-0.79688 -2.386719,-3.32032 -3.445312,-2.92188 -0.53125,0.13281 -0.929688,0.66406 -1.328125,1.0625 -1.722656,1.85938 -1.324219,3.98047 -1.324219,6.37109 v 11.94922 c 0,1.59375 -0.398437,3.84766 0.132813,5.44141 0.398437,1.19531 1.722656,2.25781 2.652343,3.1875 m 28.640625,0 c 3.316406,-2.52344 6.105469,-6.23828 8.886719,-9.42578 1.460937,-1.59375 3.449219,-3.1836 4.375,-5.17578 -3.445313,-2.66016 -6.363281,-6.64063 -9.28125,-9.82422 -0.929687,-1.0625 -2.386719,-3.32031 -3.714844,-3.71875 -1.058593,-0.26563 -2.519531,1.99219 -3.3125,2.78906 l -7.5625,8.22656 c -0.660156,0.66407 -2.386719,1.99219 -2.121093,3.0586 0.265624,1.46093 2.519531,2.91797 3.449218,3.98047 l 9.28125,10.08984 m 28.644532,0 c 1.726562,-1.32813 3.1875,-3.32031 4.777343,-4.91406 l 8.488281,-9.15625 c -0.933593,-1.46485 -2.257812,-2.66016 -3.449218,-3.98438 l -6.230469,-6.76953 c -0.796875,-0.79687 -2.253906,-3.1875 -3.453125,-3.1875 -0.796875,0 -1.589844,1.19531 -2.121094,1.85938 l -5.039062,5.4414 -4.109375,4.51172 c -0.53125,0.53125 -1.460938,1.32813 -1.460938,2.12891 0,0.53125 0.53125,1.0625 0.796875,1.46093 0.796875,0.92969 1.59375,1.72266 2.390625,2.51954 l 9.410157,10.08984 m 28.648437,0 c 1.722656,-1.32813 3.179687,-3.32031 4.773435,-4.91406 l 8.48828,-9.15625 c -1.0625,-1.59766 -2.38671,-2.92578 -3.71093,-4.25 l -6.105472,-6.50391 c -0.792969,-0.79687 -2.253907,-3.1875 -3.445313,-3.1875 -0.796875,0 -1.589844,1.19531 -2.121094,1.85938 l -5.042969,5.4414 -4.109374,4.51172 c -0.53125,0.53125 -1.457032,1.32813 -1.457032,2.12891 0,0.53125 0.53125,1.0625 0.792969,1.46093 0.796875,0.92969 1.59375,1.72266 2.386719,2.51954 l 9.550781,10.08984 m 57.289065,0 c 1.72656,-1.32813 3.18359,-3.32031 4.77343,-4.91406 l 8.48438,-9.15625 c -0.92578,-1.46485 -2.25391,-2.66016 -3.44531,-3.98438 l -6.09766,-6.5039 c -0.92969,-0.92969 -2.38672,-3.32032 -3.71484,-3.58594 -1.0625,-0.13281 -2.38672,1.85937 -3.05078,2.65625 l -7.5586,8.22656 c -0.66406,0.66406 -2.25781,1.99219 -2.125,3.05859 0.13281,1.32813 2.39063,3.05079 3.32031,3.98047 l 9.41407,10.22266 m 28.64453,0 c 1.72656,-1.32813 3.18359,-3.32031 4.77344,-4.91406 l 8.48828,-9.15625 c -1.0586,-1.59766 -2.38672,-2.92578 -3.71094,-4.25 l -6.10156,-6.50391 c -0.79688,-0.79687 -2.25391,-3.1875 -3.44922,-3.1875 -0.79297,0 -1.58985,1.19531 -2.1211,1.85938 l -5.03906,5.4414 -4.10937,4.51172 c -0.53125,0.53125 -1.46094,1.32813 -1.46094,2.12891 0,0.53125 0.53125,1.0625 0.79687,1.46093 0.79297,0.92969 1.58985,1.72266 2.38672,2.51954 l 9.54688,10.08984 M 23.871094,241.78906 c -1.0625,0.26563 -2.253906,2.1211 -3.050782,2.91797 l -6.894531,7.43359 c -0.664062,0.79688 -2.785156,2.25782 -2.785156,3.44922 0,0.92969 1.191406,1.73047 1.722656,2.39453 l 4.773438,5.17579 4.511719,4.91406 c 0.53125,0.52734 1.191406,1.45703 1.988281,1.45703 1.058593,-0.13281 2.253906,-1.98828 3.046875,-2.78516 l 7.164062,-7.69922 C 35.011719,258.25 37.132812,256.78516 37,255.58984 c -0.132812,-0.92578 -1.195312,-1.72265 -1.722656,-2.38672 l -4.511719,-4.91015 -4.773437,-5.17969 c -0.664063,-0.52734 -1.324219,-1.58984 -2.121094,-1.32422 m 28.644531,-0.39844 -9.28125,10.08594 c -0.933594,1.0625 -3.054687,2.52344 -3.449219,3.98438 -0.265625,1.05859 1.457032,2.39062 2.121094,3.05468 l 7.558594,8.23047 c 0.664062,0.66407 2.121094,3.05078 3.316406,2.78516 1.324219,-0.39844 2.785156,-2.65234 3.714844,-3.71484 l 9.28125,-10.09375 c -1.726563,-2.65235 -4.375,-4.91016 -6.496094,-7.29688 -2.121094,-2.25781 -4.246094,-5.04687 -6.765625,-7.03516 m 28.648437,0 -9.285156,10.08594 c -0.929687,1.0625 -3.050781,2.52344 -3.449218,3.98438 -0.261719,1.1914 1.859374,2.78906 2.519531,3.45312 l 7.160156,7.69922 c 0.796875,0.79688 1.992187,2.65234 3.054687,2.78516 1.058594,0.13281 2.121094,-1.72266 2.78125,-2.38672 l 7.558594,-8.23047 c 0.660156,-0.79688 2.789063,-2.26172 2.523438,-3.45313 -0.265625,-1.32812 -2.390625,-2.78906 -3.1875,-3.71875 l -6.097656,-6.5039 c -1.0625,-1.19531 -2.253907,-2.65235 -3.578126,-3.71485 m 15.378907,14.07032 c 0.929687,1.45703 2.253906,2.65625 3.449219,3.98437 l 6.234372,6.76953 c 0.79688,0.79688 2.25391,3.1836 3.44532,3.1836 0.53125,0 0.92968,-0.53125 1.32812,-0.92969 0.79297,-0.79297 1.58984,-1.72266 2.38672,-2.51953 l 9.54687,-10.35938 c -0.92578,-1.45703 -2.2539,-2.65234 -3.44531,-3.98047 l -6.23437,-6.76953 c -0.79688,-0.79687 -2.25391,-3.18359 -3.44922,-3.18359 -0.52735,0 -0.92578,0.53125 -1.32422,0.92969 -0.79688,0.79297 -1.58984,1.72265 -2.38672,2.51953 l -9.550781,10.35547 m 55.167971,0.26172 c -0.92969,-1.45704 -2.25391,-2.65235 -3.44532,-3.98047 l -5.83593,-6.3711 c -0.92969,-1.0625 -2.39063,-3.3164 -3.71485,-3.71484 -1.05859,-0.26563 -2.51953,1.98828 -3.3125,2.78516 l -7.5625,8.23046 c -0.66406,0.66407 -2.2539,1.99219 -2.12109,3.05079 0.13281,1.19531 1.85547,2.52734 2.65234,3.32421 l 7.16016,7.69922 c 0.66406,0.66407 2.125,3.05078 3.31641,2.78516 1.32421,-0.39844 2.78906,-2.65234 3.71484,-3.71484 l 9.14844,-10.09375 m 15.38672,-14.33204 -9.28516,10.08594 c -0.92578,1.0625 -3.04688,2.52344 -3.44531,3.98438 -0.26563,1.05859 1.45703,2.39062 2.12109,3.05468 l 7.55469,8.23047 c 0.66406,0.66407 2.12109,3.05078 3.32031,2.78516 1.32422,-0.39844 2.78516,-2.65234 3.71094,-3.71484 l 9.28515,-10.09375 c -1.72265,-2.65235 -4.3789,-4.91016 -6.5,-7.29688 -2.12109,-2.25781 -4.24218,-5.04687 -6.76171,-7.03516 m 15.64843,14.07032 c 0.92578,1.45703 2.25391,2.65625 3.44532,3.98437 l 6.23437,6.76953 c 0.79688,0.79688 2.25391,3.1836 3.44922,3.1836 0.52734,0 0.92578,-0.53125 1.32422,-0.92969 0.79687,-0.79297 1.58984,-1.72266 2.38672,-2.51953 l 9.55078,-10.35938 c -0.92969,-1.45703 -2.25391,-2.65234 -3.44922,-3.98047 l -6.23438,-6.76953 c -0.79687,-0.79687 -2.2539,-3.18359 -3.44531,-3.18359 -0.53125,0 -0.92969,0.53125 -1.32812,0.92969 -0.79297,0.79297 -1.58985,1.72265 -2.38672,2.51953 l -9.54688,10.35547 m 31.42578,-2.52344 c -0.66015,0.79687 -2.12109,1.72656 -2.2539,2.78516 -0.26563,1.19531 1.72265,2.66015 2.51953,3.32421 0,-1.86328 0.39844,-4.51562 -0.26563,-6.10937 M 6.765625,253.86719 v 3.45312 c 1.855469,-0.93359 1.855469,-2.52344 0,-3.45312 m 2.785156,31.33203 c 1.722657,-1.32813 3.179688,-3.32031 4.769531,-4.91016 l 8.488282,-9.16406 c -0.925782,-1.46094 -2.25,-2.65625 -3.445313,-3.98047 L 13.128906,260.375 c -0.796875,-0.79688 -2.519531,-3.45703 -3.710937,-3.19141 -0.53125,0.13672 -0.929688,0.66797 -1.328125,1.06641 -1.722656,1.85937 -1.324219,3.98047 -1.324219,6.37109 v 11.94922 c 0,1.59375 -0.398437,3.85156 0.132813,5.44141 0.398437,1.19531 1.722656,2.25781 2.652343,3.1875 m 28.640625,0 c 1.726563,-1.32813 3.183594,-3.32031 4.773438,-4.91016 l 8.488281,-9.16406 c -0.925781,-1.46094 -2.253906,-2.65625 -3.445313,-3.98047 L 41.773438,260.375 c -0.796876,-0.79688 -2.253907,-3.19141 -3.449219,-3.19141 -0.792969,0 -1.589844,1.19922 -2.121094,1.86328 L 31.167969,264.48828 27.054688,269 c -0.53125,0.53125 -1.460938,1.32812 -1.460938,2.125 0,0.53125 0.53125,1.0625 0.796875,1.46094 0.792969,0.92968 1.589844,1.72656 2.386719,2.52343 l 9.414062,10.08985 M 80.101562,271.125 c -0.933593,-1.46094 -2.257812,-2.65625 -3.449218,-3.98047 l -5.835938,-6.37109 c -0.925781,-1.0625 -2.386718,-3.32032 -3.714844,-3.72266 -1.058593,-0.26562 -2.519531,1.99609 -3.3125,2.79297 l -7.558593,8.23047 c -0.664063,0.66015 -2.257813,1.98828 -2.125,3.05078 0.132812,1.19531 1.859375,2.52344 2.65625,3.31641 l 7.160156,7.70312 c 0.660156,0.66406 2.25,3.05469 3.3125,2.78906 1.328125,-0.39843 2.921875,-2.78906 3.847656,-3.85156 l 9.019531,-9.95703 m 15.382813,14.07422 c 1.722656,-1.32813 3.179687,-3.32031 4.773435,-4.91016 l 8.48828,-9.16406 c -1.0625,-1.59375 -2.38671,-2.92188 -3.71093,-4.24609 L 98.929688,260.375 c -0.792969,-0.79688 -2.253907,-3.19141 -3.445313,-3.19141 -0.796875,0 -1.589844,1.19922 -2.121094,1.86328 L 88.320312,264.48828 84.210938,269 c -0.53125,0.53125 -1.457032,1.32812 -1.457032,2.125 0,0.53125 0.53125,1.0625 0.792969,1.46094 0.796875,0.92968 1.59375,1.72656 2.386719,2.52343 l 9.550781,10.08985 m 15.382815,-14.20703 c 1.05859,1.59375 2.38672,2.92187 3.71094,4.25 l 6.10156,6.5039 c 0.79687,0.79688 2.2539,3.1875 3.44922,3.1875 0.52734,0 0.92578,-0.53125 1.32422,-0.92968 0.79687,-0.79688 1.58984,-1.72657 2.38671,-2.52344 l 9.55078,-10.35547 c -0.92968,-1.46094 -2.2539,-2.65625 -3.44921,-3.98047 l -6.23438,-6.76953 c -0.79687,-0.79688 -2.2539,-3.19141 -3.44531,-3.19141 -0.53125,0 -0.92969,0.53516 -1.32813,0.9336 -0.79296,0.79687 -1.58984,1.72656 -2.38671,2.52343 l -9.67969,10.35157 m 28.64453,0 c 0.92578,1.46093 2.25781,2.65625 3.44922,3.98437 l 6.23047,6.76953 c 0.79687,0.79688 2.2539,3.1875 3.44921,3.1875 0.52735,0 0.92579,-0.53125 1.32813,-0.92968 0.79687,-0.79688 1.58984,-1.72657 2.38672,-2.52344 l 9.54297,-10.35547 c -0.92578,-1.46094 -2.25,-2.65625 -3.44532,-3.98047 l -6.23046,-6.76953 c -0.79688,-0.79688 -2.25391,-3.19141 -3.44922,-3.19141 -0.53125,0 -0.92969,0.53516 -1.32813,0.9336 -0.79297,0.79687 -1.58984,1.72656 -2.38672,2.52343 l -9.54687,10.35157 m 55.16797,0.13281 c -0.92578,-1.46094 -2.25391,-2.65625 -3.44532,-3.98047 l -5.83984,-6.37109 c -0.92578,-1.0625 -2.38281,-3.32032 -3.71094,-3.72266 -1.05859,-0.26562 -2.51953,1.99609 -3.3164,2.79297 l -7.5586,8.23047 c -0.66015,0.66015 -2.2539,1.98828 -2.12109,3.05078 0.13281,1.19531 1.85547,2.52344 2.65234,3.31641 l 7.16016,7.70312 c 0.66406,0.66406 2.125,3.05469 3.31641,2.78906 1.32812,-0.39843 2.78515,-2.65625 3.71093,-3.71875 l 9.15235,-10.08984 m 15.11718,-13.94141 c -1.05859,0.26953 -2.12109,1.9961 -2.78125,2.79297 l -6.89843,7.4336 c -0.66407,0.79296 -2.78516,2.2539 -2.78516,3.44921 0,0.79688 0.92969,1.59375 1.45703,2.125 l 4.37891,4.64844 5.17187,5.57422 c 0.53125,0.53125 1.32422,1.72656 2.1211,1.59375 0.53125,-0.13281 0.92578,-0.66406 1.32422,-1.0625 0.79687,-0.92969 2.12109,-1.85937 2.51953,-3.05078 0.53125,-1.59375 0.13281,-4.11719 0.13281,-5.84375 v -8.49609 c 0,-1.46094 0.13281,-3.05469 0,-4.51563 -0.26563,-1.58984 -1.98828,-2.91797 -3.05078,-3.98047 -0.39453,-0.26562 -0.92578,-0.80078 -1.58985,-0.66797 m -185.925776,14.8711 -9.285156,10.08984 c -0.925782,1.0625 -3.046876,2.52344 -3.445313,3.98438 -0.265625,1.1914 1.855469,2.78515 2.519531,3.44921 l 7.160156,7.70313 c 0.796876,0.79687 1.988282,2.65234 3.050782,2.78516 1.058594,0.13281 2.121094,-1.72266 2.785156,-2.38672 l 7.558594,-8.23438 c 0.664062,-0.66406 2.785156,-2.39062 2.519531,-3.44922 -0.265625,-1.46093 -2.519531,-2.92187 -3.445313,-3.98437 l -5.839843,-6.3711 c -1.058594,-1.0664 -2.253907,-2.52343 -3.578125,-3.58593 m 28.644531,0 -9.28125,10.08984 c -0.933594,1.0625 -3.054687,2.52344 -3.449219,3.98438 -0.265625,1.05859 1.457032,2.38671 2.121094,3.05078 l 7.558594,8.23437 c 0.664062,0.66406 2.121094,3.05078 3.316406,2.78516 1.324219,-0.39844 2.785156,-2.65235 3.714844,-3.71485 l 9.28125,-10.08984 c -1.726563,-2.65625 -4.375,-4.91406 -6.496094,-7.30078 -2.121094,-2.25781 -4.246094,-5.04688 -6.765625,-7.03906 m 28.648437,0 -9.285156,10.08984 c -0.929687,1.0625 -3.050781,2.52344 -3.449218,3.98438 -0.261719,1.05859 1.460937,2.38671 2.121093,3.05078 l 7.558594,8.23437 c 0.664063,0.66406 2.125,3.05078 3.316406,2.78516 1.328125,-0.39844 2.785157,-2.65235 3.714844,-3.71485 l 9.28125,-10.08984 c -1.722656,-2.65625 -4.378906,-4.91406 -6.5,-7.30078 -2.121094,-2.25781 -4.242187,-5.04688 -6.757813,-7.03906 m 28.640628,0 -9.28125,10.08984 c -0.92969,1.0625 -3.050784,2.52344 -3.449221,3.98438 -0.265625,1.05859 1.460937,2.38671 2.121093,3.05078 l 7.562498,8.23437 c 0.66016,0.66406 2.1211,3.05078 3.3125,2.78516 1.32813,-0.39844 2.78516,-2.65235 3.71485,-3.71485 l 9.28125,-10.08984 c -1.72266,-2.65625 -4.375,-4.91406 -6.5,-7.30078 -2.1211,-2.25781 -4.24219,-5.04688 -6.76172,-7.03906 m 28.64453,0 -9.28516,10.08984 c -0.92578,1.0625 -3.04687,2.52344 -3.44531,3.98438 -0.26562,1.05859 1.45703,2.38671 2.12109,3.05078 l 7.5625,8.23437 c 0.66016,0.66406 2.1211,3.05078 3.3125,2.78516 1.32422,-0.39844 2.78516,-2.65235 3.71485,-3.71485 l 9.28125,-10.08984 c -1.72266,-2.65625 -4.375,-4.91406 -6.4961,-7.30078 -2.12109,-2.25781 -4.24609,-5.04688 -6.76562,-7.03906 m 28.64844,0 -9.28516,10.08984 c -0.92578,1.0625 -3.04688,2.52344 -3.44531,3.98438 -0.26563,1.05859 1.45703,2.38671 2.12109,3.05078 l 7.55469,8.23437 c 0.66406,0.66406 2.12109,3.05078 3.32031,2.78516 1.32422,-0.39844 2.78516,-2.65235 3.71094,-3.71485 l 9.28515,-10.08984 c -1.72265,-2.65625 -4.3789,-4.91406 -6.5,-7.30078 -2.12109,-2.25781 -4.24218,-5.04688 -6.76171,-7.03906 m 28.3789,0.53125 c -1.19531,0.39843 -2.2539,2.125 -3.05078,3.05468 l -6.76562,7.30079 c -0.66016,0.79687 -2.78125,2.25781 -2.78125,3.45312 0,1.05859 1.72265,2.38672 2.38671,3.05078 l 7.5586,8.23438 c 0.66406,0.79687 2.12109,2.91797 3.3164,2.51953 1.19141,-0.39844 2.25,-2.1211 3.04688,-3.05078 l 6.76562,-7.30469 c 0.66407,-0.79688 2.78516,-2.25781 2.78516,-3.44922 0,-1.0625 -1.72266,-2.39062 -2.38672,-3.05469 l -7.5625,-8.23047 c -0.66015,-0.66796 -2.12109,-2.92187 -3.3125,-2.52343 m 18.69531,11.01953 c -0.66015,0.79687 -2.12109,1.72656 -2.2539,2.78906 -0.26563,1.19141 1.72265,2.65234 2.51953,3.31641 0,-1.85938 0.39844,-4.51172 -0.26563,-6.10547 M 6.765625,284.53516 v 3.44921 c 0.664063,-0.53125 1.191406,-1.05859 1.722656,-1.58984 -0.53125,-0.79687 -1.058593,-1.32812 -1.722656,-1.85937 m 16.042969,17.25781 c -1.589844,-2.38672 -3.710938,-4.2461 -5.703125,-6.3711 l -5.171875,-5.57812 c -0.527344,-0.66406 -1.324219,-1.85938 -2.121094,-1.99219 -0.660156,-0.13281 -1.058594,0.39844 -1.457031,0.79688 -1.058594,1.0625 -1.457031,1.85937 -1.457031,3.45703 0,5.57422 0,11.28125 0,16.85547 0,2.1289 -0.265626,4.91406 2.121093,5.57812 1.988281,0.53125 3.3125,-1.32812 4.507813,-2.78515 l 9.28125,-9.96094 m 28.644531,0 c -0.925781,-1.46094 -2.253906,-2.65235 -3.445313,-3.98047 l -6.234374,-6.77344 c -0.796876,-0.79687 -2.253907,-3.1875 -3.449219,-3.1875 -0.792969,0 -1.589844,1.19531 -2.121094,1.85938 l -5.035156,5.44531 -4.113281,4.51172 c -0.53125,0.53125 -1.460938,1.32812 -1.460938,2.125 0,0.79687 0.796875,1.46094 1.195312,1.85937 l 3.84375,4.2461 4.511719,4.91406 c 0.660157,0.79687 1.457031,1.72656 2.386719,1.99219 1.988281,0.53125 3.3125,-1.32813 4.507812,-2.78516 l 9.414063,-10.22656 m 28.648437,0 c -0.933593,-1.46094 -2.257812,-2.65235 -3.449218,-3.98047 l -6.363282,-6.77344 c -0.796874,-0.79687 -2.253906,-3.1875 -3.453124,-3.1875 -0.792969,0 -1.589844,1.19531 -2.121094,1.85938 l -5.039063,5.3125 -4.109375,4.51562 c -0.53125,0.52735 -1.460937,1.32422 -1.460937,2.1211 0,0.79687 0.796875,1.46093 1.191406,1.85937 l 3.851563,4.24609 4.507812,4.91407 c 0.660156,0.79687 1.457031,1.72656 2.386719,1.99218 1.992187,0.53125 3.316406,-1.32812 4.507812,-2.78515 l 9.550781,-10.09375 m 28.644528,0 c -1.0625,-1.59375 -2.38671,-2.91797 -3.71093,-4.2461 l -6.105472,-6.50781 c -0.792969,-0.79687 -2.253907,-3.1875 -3.445313,-3.1875 -0.796875,0 -1.589844,1.19531 -2.121094,1.85938 l -5.042969,5.44531 -4.109374,4.51172 c -0.53125,0.53125 -1.457032,1.32812 -1.457032,2.125 0,0.79687 0.792969,1.46094 1.191406,1.85937 l 3.847657,4.2461 4.503906,4.91406 c 0.667969,0.79687 1.464844,1.72656 2.390625,1.99219 1.988281,0.53125 3.316406,-1.32813 4.507812,-2.78516 l 9.550778,-10.22656 m 2.1211,-0.39844 c 0.66406,1.59375 2.12109,2.78906 3.3125,3.98438 l 6.76562,7.30078 c 1.19532,1.32812 2.51953,2.65625 4.375,1.99218 1.46094,-0.53125 2.78516,-2.65234 3.84375,-3.84765 l 8.22656,-8.89844 c -0.92968,-1.46094 -2.2539,-2.65234 -3.44921,-3.98047 l -6.23438,-6.77344 c -0.79687,-0.79687 -2.51953,-3.45312 -3.71094,-3.1875 -1.32812,0.39844 -2.78515,2.65625 -3.71093,3.71875 -3.05078,3.05469 -5.97266,7.03907 -9.41797,9.69141 m 55.16406,0.39844 c -0.92578,-1.46094 -2.25391,-2.65235 -3.44531,-3.98047 l -6.23047,-6.77344 c -0.79688,-0.79687 -2.25391,-3.1875 -3.45313,-3.1875 -0.79297,0 -1.58984,1.19531 -2.12109,1.85938 l -5.03516,5.44531 -4.10937,4.51172 c -0.53516,0.53125 -1.46485,1.32812 -1.46485,2.125 0,0.79687 0.79688,1.46094 1.19532,1.85937 l 3.84765,4.2461 4.50782,4.91406 c 0.66406,0.79687 1.45703,1.72656 2.38671,1.99219 1.99219,0.53125 3.31641,-1.32813 4.51172,-2.78516 l 9.41016,-10.22656 m 28.64844,0 c -1.0586,-1.46094 -2.38672,-2.78516 -3.71094,-4.11328 l -6.10156,-6.50782 c -0.79688,-0.79687 -2.25391,-3.1875 -3.44922,-3.1875 -0.79297,0 -1.58985,1.19532 -2.1211,1.85938 l -5.03906,5.44531 -4.10937,4.51172 c -0.53125,0.53125 -1.46094,1.32813 -1.46094,2.125 0,0.79688 0.79687,1.46094 1.19531,1.85938 l 3.84375,4.24609 4.50781,4.91406 c 0.66407,0.79688 1.46094,1.72656 2.39063,1.99219 1.98828,0.53125 3.3125,-1.32813 4.50781,-2.78516 l 9.54688,-10.35937 m 15.11718,-13.94141 c -1.05859,0.26563 -2.12109,1.99219 -2.78125,2.78906 l -6.89843,7.4375 c -0.66407,0.79688 -2.78516,2.25391 -2.78516,3.44922 0,1.19532 1.98828,2.78907 2.78516,3.45313 l 6.76562,7.30078 c 1.19141,1.32812 2.38281,2.78906 4.375,2.25781 1.19141,-0.26562 2.78125,-2.125 3.17969,-3.44922 0.53125,-1.86328 0.13281,-4.38672 0.13281,-6.375 v -8.49609 c 0,-1.19531 0.26563,-2.78906 -0.13281,-3.98047 -0.39844,-1.46484 -1.98828,-2.79297 -2.91797,-3.72266 -0.52734,-0.13281 -1.05859,-0.79687 -1.72266,-0.66406 m -185.925776,14.8711 -6.898438,7.4375 c -1.324218,1.46093 -2.785156,2.78515 -3.84375,4.51171 h 21.882813 c -0.929688,-1.72656 -2.652344,-3.05078 -3.84375,-4.51171 -2.390625,-2.39454 -4.644531,-5.3125 -7.296875,-7.4375 m 28.644531,0 -7.160156,7.70312 c -1.191407,1.32813 -2.789063,2.65234 -3.714844,4.24609 h 21.882813 c -1.460938,-2.25781 -3.582032,-4.11328 -5.4375,-6.10937 -1.722657,-1.85938 -3.449219,-4.24609 -5.570313,-5.83984 m 28.648437,0 -6.898437,7.4375 c -1.328125,1.46093 -2.785156,2.78515 -3.84375,4.51171 h 21.875 c -0.925781,-1.72656 -2.648437,-3.05078 -3.84375,-4.51171 -2.386719,-2.39454 -4.640625,-5.3125 -7.289063,-7.4375 m 28.640628,0 -7.16016,7.70312 c -1.19531,1.32813 -2.785155,2.65234 -3.714842,4.24609 H 120.8125 c -1.45703,-2.25781 -3.57812,-4.11328 -5.4375,-6.10937 -1.72266,-1.85938 -3.44922,-4.24609 -5.57031,-5.83984 m 28.64453,0 -7.16016,7.70312 c -1.1914,1.32813 -2.78515,2.65234 -3.71484,4.24609 h 21.88281 c -1.45703,-2.25781 -3.57812,-4.11328 -5.43359,-6.10937 -1.72657,-1.85938 -3.45313,-4.24609 -5.57422,-5.83984 m 28.64844,0 -7.16407,7.70312 c -1.1914,1.32813 -2.78125,2.65234 -3.71093,4.24609 h 21.8789 c -1.45703,-2.25781 -3.57812,-4.11328 -5.4375,-6.10937 -1.72265,-1.85938 -3.44531,-4.24609 -5.5664,-5.83984 m 18.03515,11.94921 h 21.75 c -0.66406,-1.46093 -1.85937,-2.39062 -2.78515,-3.44921 l -5.17579,-5.57813 c -0.66015,-0.66406 -1.85546,-2.52344 -2.78125,-2.52344 -1.0625,0 -2.12109,1.85938 -2.78515,2.52344 l -5.17578,5.57813 c -1.19141,1.05859 -2.51953,2.12109 -3.04688,3.44921 m 28.90625,-0.39843 v 0.53125 h 0.39844 v -0.53125 z m 0,0"
         id="path12" />
    </g>
  </g>
</svg>
